<svg viewBox="-33 0 512 512" xmlns="http://www.w3.org/2000/svg"><path d="m369.15625 123.53125c34.058594 0 61.769531-27.707031 61.769531-61.765625 0-34.054687-27.710937-61.765625-61.769531-61.765625-34.054688 0-61.765625 27.707031-61.765625 61.765625s27.710937 61.765625 61.765625 61.765625zm0 0"/><path d="m378.890625 234.046875v-78.613281c0-.800782-.023437-1.609375-.039063-2.414063-3.1875.335938-6.417968.511719-9.695312.511719-50.597656 0-91.765625-41.164062-91.765625-91.765625 0-17.050781 4.679687-33.03125 12.820313-46.726563-20.75-9.871093-43.535157-15.039062-66.753907-15.039062-85.707031 0-155.433593 69.726562-155.433593 155.433594v78.613281c0 44.167969-16.292969 86.660156-44.796876 119.472656h400.460938c-28.507812-32.816406-44.796875-75.304687-44.796875-119.472656zm0 0"/><path d="m181.328125 469.871094c0 23.230468 18.898437 42.128906 42.128906 42.128906s42.128907-18.898438 42.128907-42.128906v-.582032h-84.257813zm0 0"/><path d="m0 383.519531v55.769531h446.914062v-55.769531zm0 0"/></svg>