<svg viewBox="-41 0 511 512" xmlns="http://www.w3.org/2000/svg"><path d="m73.460938 185.210938v72.316406c0 40.027344-14.441407 78.570312-39.789063 108.691406h363.113281c-25.347656-30.121094-39.789062-68.664062-39.789062-108.691406v-72.316406c0-78.171876-63.597656-141.769532-141.765625-141.769532-78.171875 0-141.769531 63.597656-141.769531 141.769532zm0 0"/><path d="m10.886719 445.113281h408.6875v-48.878906h-408.6875zm0 0"/><path d="m215.230469 512c20.476562 0 37.175781-16.476562 37.539062-36.867188h-75.078125c.359375 20.390626 17.0625 36.867188 37.539063 36.867188zm0 0"/><path d="m140.390625 27.4375-12.175781-27.4375c-77.582032 34.429688-127.714844 111.5-127.714844 196.351562h30.015625c0-72.992187 43.128906-139.296874 109.875-168.914062zm0 0"/><path d="m399.941406 196.351562h30.015625c0-84.851562-50.128906-161.921874-127.714843-196.351562l-12.175782 27.4375c66.746094 29.617188 109.875 95.921875 109.875 168.914062zm0 0"/></svg>