<svg viewBox="0 -50 512 512" xmlns="http://www.w3.org/2000/svg"><path d="m297.105469 104.308594c-.023438 0-.042969 0-.066407 0-8.808593.015625-17.085937 3.464844-23.300781 9.707031l-17.738281 17.804687-17.738281-17.808593c-6.214844-6.238281-14.492188-9.6875-23.300781-9.703125-.023438 0-.046876 0-.066407 0-8.785156 0-17.046875 3.414062-23.273437 9.613281-12.882813 12.835937-12.925782 33.757813-.089844 46.644531l64.46875 64.71875 64.472656-64.71875c12.832032-12.882812 12.792969-33.808594-.09375-46.644531-6.226562-6.199219-14.488281-9.613281-23.273437-9.613281zm0 0"/><path d="m0 0v335.851562h212.796875l43.203125 76.832032 43.203125-76.835938h212.796875v-335.847656zm341.726562 181.738281-85.726562 86.058594-85.726562-86.058594c-24.507813-24.605469-24.429688-64.5625.175781-89.070312 11.886719-11.84375 27.667969-18.359375 44.441406-18.359375h.128906c15.210938.03125 29.585938 5.414062 40.980469 15.257812 11.390625-9.84375 25.769531-15.226562 40.980469-15.257812 16.804687.011718 32.652343 6.488281 44.570312 18.359375 24.605469 24.511719 24.679688 64.464843.175781 89.070312zm0 0"/></svg>