<svg viewBox="-31 0 512 512" xmlns="http://www.w3.org/2000/svg"><path d="m291.121094 194.75v-37.496094c0-36.550781-29.734375-66.285156-66.28125-66.285156-36.550782 0-66.285156 29.734375-66.285156 66.285156v37.496094c0 17.496094-4.917969 34.484375-13.808594 49.132812h160.183594c-8.890626-14.648437-13.808594-31.636718-13.808594-49.132812zm0 0"/><path d="m212.601562 345.910156c0 6.75 5.488282 12.238282 12.238282 12.238282s12.238281-5.488282 12.238281-12.238282v-14.148437h-24.480469v14.148437zm0 0"/><path d="m383.824219 65.855469c-42.464844-42.46875-98.929688-65.855469-158.984375-65.855469-60.058594 0-116.519532 23.386719-158.984375 65.855469-42.46875 42.464843-65.855469 98.925781-65.855469 158.984375 0 107.257812 76.277344 200.046875 181.371094 220.625l6.804687 1.332031 36.664063 65.203125 36.664062-65.203125 6.800782-1.332031c105.09375-20.578125 181.375-113.367188 181.375-220.625 0-60.058594-23.390626-116.519532-65.855469-158.984375zm-30.234375 265.90625h-86.492188v14.148437c0 23.304688-18.957031 42.261719-42.257812 42.261719-23.304688 0-42.261719-18.957031-42.261719-42.261719v-14.148437h-86.488281v-80.464844l6.117187-4.496094c16.484375-12.128906 26.328125-31.585937 26.328125-52.050781v-37.496094c0-53.105468 43.203125-96.304687 96.304688-96.304687 53.101562 0 96.304687 43.203125 96.304687 96.304687v37.496094c0 20.464844 9.839844 39.925781 26.328125 52.050781l6.117188 4.496094zm0 0"/><path d="m126.109375 301.738281h197.457031v-27.835937h-197.457031zm0 0"/></svg>