<svg viewBox="0 -145 512 512" xmlns="http://www.w3.org/2000/svg"><path d="m210.996094 77.273438c-.011719 0-.019532 0-.027344 0-3.921875.007812-7.605469 1.542968-10.371094 4.320312l-15.027344 15.085938-15.023437-15.085938c-2.863281-2.875-6.632813-4.3125-10.398437-4.3125-3.75 0-7.5 1.421875-10.359376 4.269531-5.734374 5.714844-5.753906 15.027344-.042968 20.761719l35.824218 35.960938 35.824219-35.960938c2.769531-2.78125 4.289063-6.46875 4.28125-10.390625-.007812-3.917969-1.542969-7.601563-4.320312-10.371094-2.773438-2.757812-6.449219-4.277343-10.359375-4.277343zm0 0"/><path d="m105.355469 0-105.355469 110.902344 105.355469 110.902344h406.644531v-221.804688zm137.292969 123.484375-57.078126 57.300781-57.078124-57.300781c-17.386719-17.453125-17.332032-45.796875.121093-63.183594 15.496094-15.4375 39.578125-17.125 56.949219-5.097656 7.390625-5.136719 16.15625-7.910156 25.347656-7.929687h.085938c11.902344 0 23.097656 4.625 31.53125 13.027343 8.453125 8.421875 13.125 19.632813 13.148437 31.566407.019531 11.933593-4.605469 23.160156-13.027343 31.617187zm141.816406 39.734375h-65.226563v-23.953125h20.003907v-51c-3.101563 4.371094-15.636719 12.117187-23.246094 12.117187v-24.515624c10.144531 0 22.964844-12.820313 23.246094-13.382813h27.332031v76.78125h17.894531v23.953125zm40.570312 1.265625c-14.652344 0-27.050781-5.773437-33.390625-15.777344l14.652344-16.90625c5.355469 5.773438 12.539063 9.296875 18.878906 9.296875 6.902344 0 11.128907-4.085937 11.128907-10.425781 0-6.199219-3.945313-10.285156-9.71875-10.285156-3.945313 0-7.46875 1.972656-9.160157 4.933593h-22.960937l11.832031-62.273437h50.15625v24.375h-30.855469l-1.546875 10.847656s1.96875-.707031 6.476563-.707031c19.445312 0 33.25 13.386719 33.25 32.546875 0 20.289063-15.777344 34.375-38.742188 34.375zm0 0"/></svg>