<svg viewBox="0 -58 512 512" xmlns="http://www.w3.org/2000/svg"><path d="m217.828125 326.160156-65.59375-68.496094-132.101563 137.949219h395.390626l-132.101563-137.949219zm0 0"/><path d="m377.523438 116.023438c-8.582032-11.453126-14.535157-24.980469-16.976563-39.679688h-340.414063l197.695313 206.441406zm0 0"/><path d="m0 98.695312v274.566407l131.464844-137.28125zm0 0"/><path d="m304.191406 235.976562 131.464844 137.285157v-221.808594c-13.347656-2.214844-25.726562-7.332031-36.464844-14.679687zm0 0"/><path d="m450.65625 0c-33.828125 0-61.347656 27.519531-61.347656 61.34375 0 33.828125 27.519531 61.347656 61.347656 61.347656 33.824219 0 61.34375-27.519531 61.34375-61.347656 0-33.824219-27.519531-61.34375-61.34375-61.34375zm0 0"/></svg>