<svg viewBox="0 0 512 512" xmlns="http://www.w3.org/2000/svg"><path d="m354.554688 225.96875c-1.933594-6.347656-4.5-12.539062-7.632813-18.40625l-4.265625-7.988281 19.582031-28.878907-20.933593-20.933593-28.878907 19.585937-7.988281-4.269531c-5.867188-3.132813-12.0625-5.699219-18.40625-7.632813l-8.660156-2.632812-6.566406-34.253906h-29.605469l-6.570313 34.253906-8.660156 2.632812c-6.34375 1.933594-12.539062 4.5-18.40625 7.632813l-7.988281 4.269531-28.878907-19.585937-20.933593 20.933593 19.585937 28.878907-4.269531 7.988281c-3.132813 5.867188-5.699219 12.058594-7.628906 18.40625l-2.636719 8.660156-34.253906 6.570313v29.605469l34.253906 6.566406 2.636719 8.660156c1.929687 6.351562 4.496093 12.542969 7.628906 18.40625l4.269531 7.992188-19.585937 28.875 20.933593 20.9375 28.878907-19.585938 7.988281 4.265625c5.867188 3.132813 12.0625 5.699219 18.40625 7.632813l8.660156 2.632812 6.570313 34.257812h29.605469l6.566406-34.257812 8.660156-2.632812c6.347656-1.933594 12.539062-4.5 18.40625-7.632813l7.988281-4.265625 28.878907 19.585938 20.933593-20.9375-19.582031-28.875 4.265625-7.992188c3.132813-5.863281 5.699219-12.054688 7.632813-18.40625l2.632812-8.660156 34.257812-6.566406v-29.605469l-34.257812-6.570313zm-98.554688 87.414062c-31.640625 0-57.382812-25.742187-57.382812-57.382812s25.742187-57.382812 57.382812-57.382812 57.382812 25.742187 57.382812 57.382812-25.742187 57.382812-57.382812 57.382812zm0 0"/><path d="m256 228.617188c-15.097656 0-27.382812 12.285156-27.382812 27.382812s12.285156 27.382812 27.382812 27.382812 27.382812-12.285156 27.382812-27.382812-12.285156-27.382812-27.382812-27.382812zm0 0"/><path d="m437.019531 74.980469c-48.351562-48.351563-112.640625-74.980469-181.019531-74.980469s-132.667969 26.628906-181.019531 74.980469c-48.351563 48.351562-74.980469 112.640625-74.980469 181.019531s26.628906 132.667969 74.980469 181.019531c48.351562 48.351563 112.640625 74.980469 181.019531 74.980469s132.667969-26.628906 181.019531-74.980469c48.351563-48.351562 74.980469-112.640625 74.980469-181.019531s-26.628906-132.667969-74.980469-181.019531zm-15.578125 220.617187-41.183594 7.894532c-.875 2.289062-1.8125 4.550781-2.8125 6.785156l23.539063 34.710937-55.996094 55.996094-34.710937-23.539063c-2.234375 1-4.496094 1.9375-6.785156 2.8125l-7.894532 41.1875h-79.195312l-7.894532-41.1875c-2.285156-.875-4.550781-1.8125-6.785156-2.8125l-34.707031 23.539063-56-55.996094 23.539063-34.710937c-1-2.234375-1.9375-4.496094-2.8125-6.785156l-41.183594-7.894532v-79.195312l41.183594-7.894532c.875-2.285156 1.8125-4.550781 2.8125-6.785156l-23.539063-34.707031 56-56 34.707031 23.539063c2.234375-1 4.5-1.9375 6.785156-2.8125l7.894532-41.183594h79.195312l7.894532 41.183594c2.289062.875 4.550781 1.8125 6.785156 2.8125l34.710937-23.539063 55.996094 56-23.539063 34.707031c1 2.234375 1.9375 4.5 2.8125 6.785156l41.183594 7.894532zm0 0"/></svg>