<svg viewBox="0 -50 512 512" xmlns="http://www.w3.org/2000/svg"><path d="m318.203125 177.035156h-17.808594c-11.558593 11.03125-27.195312 17.828125-44.394531 17.828125s-32.835938-6.796875-44.394531-17.828125h-17.808594c-12.410156 0-22.503906 10.09375-22.503906 22.503906v50.15625h169.414062v-50.15625c0-12.410156-10.09375-22.503906-22.503906-22.503906zm0 0"/><path d="m256 164.863281c18.945312 0 34.359375-15.414062 34.359375-34.359375v-21.644531c0-18.945313-15.414063-34.359375-34.359375-34.359375s-34.359375 15.414062-34.359375 34.359375v21.644531c0 18.945313 15.414063 34.359375 34.359375 34.359375zm0 0"/><path d="m0 0v335.851562h212.796875l43.203125 76.832032 43.203125-76.835938h212.796875v-335.847656zm370.707031 279.695312h-229.414062v-80.15625c0-28.949218 23.550781-52.503906 52.5-52.503906h.007812c-1.402343-5.277344-2.160156-10.816406-2.160156-16.53125v-21.644531c0-35.488281 28.871094-64.359375 64.359375-64.359375s64.359375 28.871094 64.359375 64.359375v21.644531c0 5.714844-.757813 11.253906-2.164063 16.53125h.007813c28.949219 0 52.503906 23.550782 52.503906 52.5zm0 0"/></svg>