<svg viewBox="-31 1 511 511.99998" xmlns="http://www.w3.org/2000/svg"><path d="m333.816406 274.027344v-104.785156l-52.460937 52.390624zm0 0"/><path d="m312.566406 148.054688h-174.460937l87.230469 87.117187zm0 0"/><path d="m225.335938 277.582031-34.789063-34.746093-52.441406 52.375h174.460937l-52.441406-52.375zm0 0"/><path d="m384.320312 65.851562c-42.46875-42.464843-98.929687-65.851562-158.984374-65.851562-60.054688 0-116.515626 23.386719-158.984376 65.851562-42.464843 42.46875-65.851562 98.929688-65.851562 158.984376 0 107.257812 76.277344 200.046874 181.371094 220.625l6.796875 1.332031 36.667969 65.207031 36.667968-65.207031 6.796875-1.332031c105.09375-20.578126 181.371094-113.363282 181.371094-220.625 0-60.054688-23.386719-116.515626-65.851563-158.984376zm-20.496093 259.367188h-276.976563v-207.167969h276.976563zm0 0"/><path d="m116.855469 169.242188v104.785156l52.460937-52.394532zm0 0"/></svg>