<svg viewBox="0 -50 512 512" xmlns="http://www.w3.org/2000/svg"><path d="m100.382812 140.738281c-14.992187 0-27.1875 12.195313-27.1875 27.1875 0 14.992188 12.195313 27.1875 27.1875 27.1875 14.988282 0 27.1875-12.195312 27.1875-27.1875 0-14.992187-12.199218-27.1875-27.1875-27.1875zm0 0"/><path d="m256 140.738281c-14.992188 0-27.1875 12.195313-27.1875 27.1875 0 14.992188 12.195312 27.1875 27.1875 27.1875s27.1875-12.195312 27.1875-27.1875c0-14.992187-12.195312-27.1875-27.1875-27.1875zm0 0"/><path d="m0 0v335.851562h212.796875l43.203125 76.832032 43.203125-76.835938h212.796875v-335.847656zm100.382812 225.113281c-31.535156 0-57.1875-25.65625-57.1875-57.1875 0-31.535156 25.652344-57.191406 57.1875-57.191406 31.53125 0 57.1875 25.65625 57.1875 57.191406 0 31.53125-25.65625 57.1875-57.1875 57.1875zm155.617188 0c-31.53125 0-57.1875-25.65625-57.1875-57.1875 0-31.535156 25.652344-57.191406 57.1875-57.191406s57.1875 25.65625 57.1875 57.191406c0 31.53125-25.65625 57.1875-57.1875 57.1875zm155.617188 0c-31.53125 0-57.1875-25.65625-57.1875-57.1875 0-31.535156 25.65625-57.191406 57.1875-57.191406 31.535156 0 57.1875 25.65625 57.1875 57.191406 0 31.53125-25.652344 57.1875-57.1875 57.1875zm0 0"/><path d="m411.617188 140.738281c-14.988282 0-27.1875 12.195313-27.1875 27.1875 0 14.992188 12.199218 27.1875 27.1875 27.1875 14.992187 0 27.1875-12.195312 27.1875-27.1875 0-14.992187-12.195313-27.1875-27.1875-27.1875zm0 0"/></svg>