<svg viewBox="0 0 512 512" xmlns="http://www.w3.org/2000/svg"><path d="m437.019531 74.980469c-48.351562-48.351563-112.640625-74.980469-181.019531-74.980469s-132.667969 26.628906-181.019531 74.980469c-48.351563 48.351562-74.980469 112.640625-74.980469 181.019531s26.628906 132.667969 74.980469 181.019531c48.351562 48.351563 112.640625 74.980469 181.019531 74.980469s132.667969-26.628906 181.019531-74.980469c48.351563-48.351562 74.980469-112.640625 74.980469-181.019531s-26.628906-132.667969-74.980469-181.019531zm-164.152343 312.84375h-33.734376v-30h33.734376zm26.71875-61.230469c-11.640626-11.644531-27.121094-18.054688-43.585938-18.054688s-31.941406 6.410157-43.585938 18.054688l-21.214843-21.214844c17.3125-17.308594 40.324219-26.839844 64.800781-26.839844s47.488281 9.53125 64.800781 26.839844zm54.574218-54.578125c-26.21875-26.21875-61.078125-40.660156-98.160156-40.660156-37.078125 0-71.941406 14.441406-98.160156 40.660156l-21.214844-21.210937c31.886719-31.886719 74.28125-49.449219 119.375-49.449219s87.488281 17.5625 119.375 49.449219zm54.578125-54.574219c-40.800781-40.796875-95.042969-63.265625-152.738281-63.265625s-111.9375 22.46875-152.738281 63.265625l-21.210938-21.214844c46.464844-46.460937 108.238281-72.050781 173.949219-72.050781s127.484375 25.589844 173.949219 72.050781zm0 0"/></svg>