<svg viewBox="0 -7 512.00024 512" xmlns="http://www.w3.org/2000/svg"><path d="m450.234375 153.53125c-46.144531 0-84.4375-34.234375-90.824219-78.640625-31.019531 1.503906-60.589844 14.496094-82.6875 36.683594l-31.40625 31.53125-31.402344-31.53125c-23.601562-23.695313-55.019531-36.777344-88.464843-36.84375-.082031 0-.167969 0-.25 0-33.351563 0-64.71875 12.957031-88.355469 36.5-23.691406 23.605469-36.7773438 55.019531-36.84375 88.464843-.0625 33.441407 12.898438 64.910157 36.5 88.605469l208.816406 209.628907 208.816406-209.628907c36.890626-37.035156 46.574219-92.792969 25.539063-139.613281-9.242187 3.140625-19.144531 4.84375-29.4375 4.84375zm0 0"/><path d="m450.234375 0c-34.058594 0-61.765625 27.707031-61.765625 61.765625s27.707031 61.765625 61.765625 61.765625 61.765625-27.707031 61.765625-61.765625-27.707031-61.765625-61.765625-61.765625zm0 0"/></svg>