<svg viewBox="-34 0 512 512" xmlns="http://www.w3.org/2000/svg"><path d="m221.605469 310.691406c56.3125 0 102.128906-45.816406 102.128906-102.128906v-51.359375c0-1.636719-.050781-3.28125-.132813-4.925781-43.421874-7.234375-76.632812-45.0625-76.632812-90.511719 0-1.164063.027344-2.320313.070312-3.46875-8.269531-2.125-16.78125-3.222656-25.4375-3.222656-56.3125 0-102.128906 45.816406-102.128906 102.128906v51.359375c0 56.3125 45.816406 102.128906 102.132813 102.128906zm0 0"/><path d="m338.734375 123.53125c34.058594 0 61.769531-27.707031 61.769531-61.765625 0-34.054687-27.710937-61.765625-61.769531-61.765625s-61.765625 27.707031-61.765625 61.765625 27.707031 61.765625 61.765625 61.765625zm0 0"/><path d="m369.214844 298.386719h-50.804688c-24.144531 26.003906-58.605468 42.304687-96.804687 42.304687-38.203125 0-72.660157-16.300781-96.808594-42.304687h-50.804687c-40.800782 0-73.992188 33.191406-73.992188 73.992187v139.621094h443.210938v-139.621094c-.003907-40.800781-33.195313-73.992187-73.996094-73.992187zm0 0"/></svg>