<svg viewBox="0 -145 512 512" xmlns="http://www.w3.org/2000/svg"><path d="m377.589844 102.261719c3.300781 0 6.84375-2.078125 6.84375-6.476563 0-3.179687-2.8125-5.871094-6.84375-5.871094-4.035156 0-6.726563 2.691407-6.726563 5.871094 0 4.398438 3.425781 6.476563 6.726563 6.476563zm0 0"/><path d="m377.589844 119.5c-5.378906 0-9.167969 3.300781-9.167969 8.4375 0 4.769531 4.03125 8.433594 9.167969 8.433594 5.378906 0 9.167968-3.789063 9.167968-8.433594 0-5.378906-3.910156-8.4375-9.167968-8.4375zm0 0"/><path d="m208.722656 105.953125c7.132813 0 12.933594-5.800781 12.933594-12.933594v-12.246093c0-7.132813-5.800781-12.933594-12.933594-12.933594-7.132812 0-12.933594 5.800781-12.933594 12.933594v12.246093c0 7.132813 5.800782 12.933594 12.933594 12.933594zm0 0"/><path d="m243.925781 125.867188h-7.59375c-7.46875 6.289062-17.101562 10.085937-27.609375 10.085937-10.507812 0-20.136718-3.796875-27.609375-10.085937h-7.59375c-3.429687 0-6.222656 2.789062-6.222656 6.222656v21.875h82.851563v-21.875c0-3.433594-2.792969-6.222656-6.222657-6.222656zm0 0"/><path d="m105.355469 0-105.355469 110.902344 105.355469 110.902344h406.644531v-221.804688zm174.792969 183.964844h-142.851563v-51.875c0-17.378906 12.304687-31.933594 28.65625-35.421875-.101563-1.203125-.164063-2.417969-.164063-3.644531v-12.25c0-23.671876 19.261719-42.933594 42.933594-42.933594 23.675782 0 42.933594 19.261718 42.933594 42.933594v12.25c0 1.226562-.0625 2.441406-.164062 3.644531 16.351562 3.488281 28.65625 18.042969 28.65625 35.421875zm97.441406-26.441406c-17.238282 0-32.765625-11.25-32.765625-28.976563 0-8.679687 5.746093-15.035156 10.515625-18.582031-4.648438-2.8125-8.070313-9.046875-8.070313-14.671875 0-16.746094 16.871094-25.792969 30.320313-25.792969 13.445312 0 30.441406 8.800781 30.441406 25.550781 0 5.621094-3.546875 12.226563-8.191406 14.914063 4.890625 3.667968 10.511718 10.144531 10.511718 19.316406 0 16.992188-14.667968 28.242188-32.761718 28.242188zm0 0"/></svg>