<svg viewBox="0 -88 512 512" xmlns="http://www.w3.org/2000/svg"><path d="m145.058594 163.214844c35.417968 0 64.238281-28.816406 64.238281-64.238282v-34.738281c0-35.421875-28.816406-64.238281-64.238281-64.238281-35.417969 0-64.238282 28.816406-64.238282 64.238281v34.738281c0 35.421876 28.816407 64.238282 64.238282 64.238282zm0 0"/><path d="m389.441406 182.359375c29.277344 0 53.097656-23.820313 53.097656-53.097656v-29.859375c0-29.28125-23.820312-53.097656-53.097656-53.097656s-53.097656 23.816406-53.097656 53.097656v29.855468c0 29.28125 23.820312 53.101563 53.097656 53.101563zm0 0"/><path d="m475.261719 187.761719h-26.871094c-15.0625 15.179687-35.925781 24.597656-58.949219 24.597656-23.023437 0-43.886718-9.417969-58.949218-24.597656h-13.675782c2.140625 6.972656 3.296875 14.371093 3.296875 22.035156v126.046875h191.886719v-111.34375c0-20.257812-16.480469-36.738281-36.738281-36.738281zm0 0"/><path d="m244.914062 164.597656h-32.289062c-17.136719 17.636719-41.089844 28.617188-67.566406 28.617188-26.476563 0-50.433594-10.980469-67.566406-28.617188h-32.292969c-24.921875 0-45.199219 20.273438-45.199219 45.199219v126.046875h290.117188v-126.046875c0-24.925781-20.277344-45.199219-45.203126-45.199219zm0 0"/></svg>