<svg viewBox="-6 0 512 512" xmlns="http://www.w3.org/2000/svg"><path d="m184.125 210.375c46.085938 0 83.578125-37.492188 83.578125-83.574219v-43.222656c0-46.085937-37.492187-83.578125-83.574219-83.578125-46.085937 0-83.578125 37.492188-83.578125 83.578125v43.222656c0 46.082031 37.492188 83.574219 83.574219 83.574219zm0 0"/><path d="m366.046875 248.605469c-7.039063-25.25-30.226563-43.832031-57.691406-43.832031h-41.722657c-20.71875 21.910156-50.042968 35.601562-82.507812 35.601562s-61.785156-13.691406-82.503906-35.601562h-41.726563c-33.023437 0-59.894531 26.867187-59.894531 59.894531v115.128906h236.808594c6.964844-68.476563 61.058594-123.21875 129.238281-131.191406zm0 0"/><path d="m383.253906 277.59375c-64.625 0-117.203125 52.578125-117.203125 117.203125s52.578125 117.203125 117.203125 117.203125 117.199219-52.578125 117.199219-117.203125c.003906-64.625-52.574219-117.203125-117.199219-117.203125zm58.429688 132.203125h-43.429688v43.433594h-30v-43.433594h-43.433594v-30h43.433594v-43.429687h30v43.429687h43.429688zm0 0"/></svg>