<svg viewBox="0 -56 512 512" xmlns="http://www.w3.org/2000/svg"><path d="m96.195312 40.605469-21.214843-21.210938c-48.351563 48.351563-74.980469 112.636719-74.980469 181.019531 0 68.378907 26.628906 132.667969 74.980469 181.019532l21.214843-21.214844c-42.6875-42.683594-66.195312-99.4375-66.195312-159.804688 0-60.367187 23.507812-117.121093 66.195312-159.808593zm0 0"/><path d="m117.46875 61.878906c-37.058594 37.058594-57.46875 86.257813-57.46875 138.535156 0 52.277344 20.410156 101.476563 57.46875 138.53125l21.210938-21.210937c-31.390626-31.390625-48.679688-73.058594-48.679688-117.320313 0-44.265624 17.289062-85.929687 48.679688-117.320312zm0 0"/><path d="m437.019531 19.394531-21.214843 21.210938c42.6875 42.6875 66.195312 99.441406 66.195312 159.808593 0 60.367188-23.507812 117.121094-66.195312 159.804688l21.214843 21.214844c48.351563-48.351563 74.980469-112.640625 74.980469-181.019532 0-68.382812-26.628906-132.667968-74.980469-181.019531zm0 0"/><path d="m394.53125 61.878906-21.210938 21.214844c31.390626 31.390625 48.679688 73.054688 48.679688 117.320312 0 44.261719-17.289062 85.929688-48.679688 117.320313l21.210938 21.210937c37.058594-37.054687 57.46875-86.253906 57.46875-138.53125 0-52.277343-20.410156-101.476562-57.46875-138.535156zm0 0"/><path d="m287.292969 305.835938h33.367187v94.988281h-33.367187zm0 0"/><path d="m191.339844 74.496094v251.832031c0 38.253906 28.835937 69.753906 65.953125 73.992187v-399.816406c-37.117188 4.238282-65.953125 35.738282-65.953125 73.992188zm0 0"/><path d="m287.292969 0h33.367187v94.988281h-33.367187zm0 0"/></svg>