<svg viewBox="-13 0 512 512" xmlns="http://www.w3.org/2000/svg"><path d="m364.769531 303.679688-120.273437 208.320312h240.546875zm15 184.167968h-30v-33.734375h30zm-30-57.566406v-62.890625h30v62.890625zm0 0"/><path d="m364.769531 243.679688 42.703125 73.964843c16.507813-31.066406 25.15625-65.679687 25.15625-101.332031 0-57.777344-22.5-112.097656-63.359375-152.957031-40.855469-40.855469-95.175781-63.355469-152.957031-63.355469-57.777344 0-112.097656 22.5-152.957031 63.355469-40.855469 40.855469-63.355469 95.175781-63.355469 152.957031 0 57.777344 22.5 112.101562 63.355469 152.957031s95.175781 63.355469 152.957031 63.355469c14.035156 0 28.027344-1.351562 41.6875-4.015625zm-298.488281-79.9375c40.074219-40.074219 93.359375-62.144532 150.03125-62.144532 56.675781 0 109.957031 22.066406 150.03125 62.144532l-21.214844 21.210937c-34.40625-34.40625-80.15625-53.355469-128.816406-53.355469s-94.410156 18.949219-128.816406 53.355469zm46.585938 46.582031c27.628906-27.632813 64.367187-42.847657 103.445312-42.847657s75.816406 15.214844 103.445312 42.847657l-21.210937 21.210937c-21.96875-21.964844-51.171875-34.058594-82.234375-34.058594s-60.269531 12.09375-82.234375 34.058594zm118.445312 120.703125h-30v-30h30zm-15-67.671875c-13.464844 0-26.125 5.242187-35.648438 14.765625l-21.214843-21.214844c15.1875-15.1875 35.382812-23.550781 56.863281-23.550781s41.675781 8.363281 56.863281 23.550781l-21.210937 21.214844c-9.523438-9.523438-22.1875-14.765625-35.652344-14.765625zm0 0"/></svg>