<svg viewBox="-29 1 511 511.99998" xmlns="http://www.w3.org/2000/svg"><path d="m274.625 164.097656c-13.949219-29.277344-32.636719-56.414062-55.664062-80.453125-23.03125 24.042969-41.71875 51.175781-55.667969 80.453125zm0 0"/><path d="m181.363281 80.445312c-44.191406 7.601563-84.890625 28.582032-117.246093 60.941407-7.175782 7.171875-13.777344 14.765625-19.8125 22.710937h85.878906c12.757812-30.011718 29.925781-58.160156 51.179687-83.652344zm0 0"/><path d="m287.070312 398.167969c9.703126-27.691407 15.425782-56.875 16.863282-86.847657h-169.949219c1.4375 29.972657 7.164063 59.152344 16.859375 86.847657zm0 0"/><path d="m119.039062 194.285156h-93.992187c-14.078125 26.703125-22.472656 56.15625-24.546875 86.847656h103.265625c1.304687-29.839843 6.484375-58.976562 15.273437-86.847656zm0 0"/><path d="m287.066406 194.285156h-136.214844c-9.707031 27.695313-15.433593 56.878906-16.871093 86.847656h169.957031c-1.4375-29.96875-7.164062-59.152343-16.871094-86.847656zm0 0"/><path d="m391.09375 124.304688c34.273438 0 62.15625-27.878907 62.15625-62.152344 0-34.273438-27.882812-62.152344-62.15625-62.152344-34.269531 0-62.152344 27.882812-62.152344 62.152344 0 34.273437 27.878906 62.152344 62.152344 62.152344zm0 0"/><path d="m393.574219 164.097656c-2.515625-3.320312-5.128907-6.578125-7.84375-9.761718-37.148438-2.140626-68.476563-26.335938-81.058594-59.664063-15.523437-6.617187-31.601563-11.355469-48.097656-14.207031 21.242187 25.488281 38.40625 53.628906 51.160156 83.632812zm0 0"/><path d="m103.773438 311.320312h-103.273438c2.074219 30.691407 10.46875 60.140626 24.546875 86.847657h93.976563c-8.78125-27.867188-13.945313-57.003907-15.25-86.847657zm0 0"/><path d="m318.894531 398.167969h93.972657c14.082031-26.707031 22.476562-56.160157 24.550781-86.847657h-103.273438c-1.304687 29.84375-6.46875 58.980469-15.25 86.847657zm0 0"/><path d="m318.882812 194.285156c8.785157 27.871094 13.964844 57.007813 15.269532 86.847656h103.269531c-2.097656-30.539062-10.535156-60.066406-24.636719-86.847656zm0 0"/><path d="m256.609375 512c44.167969-7.609375 84.847656-28.589844 117.191406-60.933594 7.175781-7.171875 13.777344-14.765625 19.8125-22.710937h-85.855469c-12.753906 30.011719-29.910156 58.160156-51.148437 83.644531zm0 0"/><path d="m44.304688 428.355469c6.035156 7.945312 12.636718 15.539062 19.8125 22.710937 32.34375 32.34375 73.023437 53.324219 117.191406 60.933594-21.238282-25.484375-38.394532-53.632812-51.148438-83.644531zm0 0"/><path d="m163.257812 428.355469c13.957032 29.304687 32.65625 56.460937 55.703126 80.511719 23.039062-24.050782 41.742187-51.207032 55.699218-80.511719zm0 0"/></svg>