<svg viewBox="-31 1 511 511.99998" xmlns="http://www.w3.org/2000/svg"><path d="m330.898438 201.277344c-7.507813 0-13.613282 6.105468-13.613282 13.613281 0 7.503906 6.105469 13.613281 13.613282 13.613281 7.503906 0 13.613281-6.109375 13.613281-13.613281 0-7.507813-6.105469-13.613281-13.613281-13.613281zm0 0"/><path d="m225.335938 201.277344c-7.503907 0-13.613282 6.105468-13.613282 13.613281 0 7.503906 6.109375 13.613281 13.613282 13.613281 7.507812 0 13.613281-6.109375 13.613281-13.613281 0-7.507813-6.105469-13.613281-13.613281-13.613281zm0 0"/><path d="m119.773438 201.277344c-7.503907 0-13.613282 6.105468-13.613282 13.613281 0 7.503906 6.109375 13.613281 13.613282 13.613281 7.507812 0 13.617187-6.109375 13.617187-13.613281 0-7.507813-6.109375-13.613281-13.617187-13.613281zm0 0"/><path d="m384.320312 65.851562c-42.46875-42.464843-98.929687-65.851562-158.984374-65.851562-60.054688 0-116.515626 23.386719-158.984376 65.851562-42.464843 42.46875-65.851562 98.929688-65.851562 158.984376 0 107.257812 76.277344 200.046874 181.371094 220.625l6.796875 1.332031 36.667969 65.207031 36.667968-65.207031 6.796875-1.332031c105.09375-20.578126 181.371094-113.363282 181.371094-220.625 0-60.054688-23.386719-116.515626-65.851563-158.984376zm-264.546874 192.660157c-24.050782 0-43.617188-19.566407-43.617188-43.621094s19.566406-43.621094 43.617188-43.621094c24.054687 0 43.621093 19.566407 43.621093 43.621094s-19.566406 43.621094-43.621093 43.621094zm105.5625 0c-24.050782 0-43.617188-19.566407-43.617188-43.621094s19.566406-43.621094 43.617188-43.621094c24.050781 0 43.621093 19.566407 43.621093 43.621094s-19.570312 43.621094-43.621093 43.621094zm105.5625 0c-24.054688 0-43.621094-19.566407-43.621094-43.621094s19.566406-43.621094 43.621094-43.621094c24.050781 0 43.617187 19.566407 43.617187 43.621094s-19.566406 43.621094-43.617187 43.621094zm0 0"/></svg>