<svg viewBox="-76 0 512 512.00002" xmlns="http://www.w3.org/2000/svg"><path d="m157.871094 296.839844v-90.691406c-12.671875-12.089844-22.78125-26.355469-29.949219-41.964844h-127.921875v273.113281h237.445312v-194.09375c-5.441406-.597656-10.839843-1.507813-16.167968-2.75zm0 0"/><path d="m0 467.296875h237.445312v44.703125h-237.445312zm0 0"/><path d="m273.695312 82.890625c-.003906 0-.011718 0-.019531 0-2.617187.003906-5.078125 1.027344-6.929687 2.882813l-14.300782 14.363281-14.304687-14.363281c-1.914063-1.917969-4.429687-2.878907-6.949219-2.878907-2.503906 0-5.011718.949219-6.921875 2.851563-1.855469 1.851562-2.878906 4.3125-2.886719 6.929687-.003906 2.621094 1.011719 5.085938 2.859376 6.941407l28.199218 28.308593 28.203125-28.308593c1.847657-1.855469 2.863281-4.320313 2.859375-6.941407-.007812-2.617187-1.03125-5.078125-2.890625-6.929687-1.847656-1.84375-4.304687-2.855469-6.917969-2.855469zm0 0"/><path d="m252.445312 0c-59.007812 0-107.015624 48.007812-107.015624 107.015625 0 31.183594 13.570312 60.75 37.226562 81.125l5.214844 4.488281v37.386719l25.753906-22.898437 8.019531 2.40625c9.964844 2.988281 20.328125 4.503906 30.800781 4.503906 59.007813 0 107.015626-48.003906 107.015626-107.011719s-48.007813-107.015625-107.015626-107.015625zm49.453126 120.789062-49.453126 49.648438-49.453124-49.648438c-7.507813-7.53125-11.628907-17.539062-11.605469-28.171874.019531-10.632813 4.179687-20.621094 11.714843-28.125 13.394532-13.339844 33.984376-15.15625 49.335938-5.46875 6.277344-3.980469 13.566406-6.121094 21.183594-6.136719h.078125c10.605469 0 20.578125 4.121093 28.089843 11.605469 7.535157 7.503906 11.695313 17.492187 11.71875 28.125.015626 10.632812-4.105468 20.640624-11.609374 28.171874zm0 0"/><path d="m115.429688 107.015625c0-5.941406.382812-11.796875 1.121093-17.539063h-116.550781v44.707032h118.152344c-1.792969-8.867188-2.722656-17.964844-2.722656-27.167969zm0 0"/></svg>