<svg viewBox="0 -87 512.00001 512" xmlns="http://www.w3.org/2000/svg"><path d="m433.894531 147.34375h78.105469v30h-78.105469zm0 0"/><path d="m481.132812 8.8125 15 25.980469-67.640624 39.054687-15-25.980468zm0 0"/><path d="m481.144531 315.871094-67.640625-39.050782 15-25.980468 67.640625 39.054687zm0 0"/><path d="m0 105.847656h39.328125v112.992188h-39.328125zm0 0"/><path d="m299.269531 0h79.515625v324.6875h-79.515625zm0 0"/><path d="m69.328125 223.449219 34.117187 10.488281v65l124.9375 38.40625v-65l40.890626 12.566406v-245.132812l-199.945313 61.460937zm64.117187 19.710937 64.9375 19.960938v33.613281l-64.9375-19.960937zm0 0"/></svg>