<svg viewBox="0 -2 512 512" xmlns="http://www.w3.org/2000/svg"><path d="m280.046875 309.519531h8.683594v30h-47.367188v-30h8.683594v-58.746093h-106.988281v58.746093h8.683594v30h-47.367188v-30h8.683594v-58.746093h-113.058594l50.378906 258.1875h292.347656l50.378907-258.1875h-113.058594zm0 0"/><path d="m143.058594 220.53125c0-29.496094 24-53.492188 53.496094-53.492188 29.496093 0 53.492187 23.996094 53.492187 53.492188v30.242188h30v-30.242188c0-46.039062-37.457031-83.492188-83.496094-83.492188-46.035156 0-83.492187 37.453126-83.492187 83.492188v30.242188h30zm0 0"/><path d="m309.632812 0v163.601562h54.289063v30.503907l34.304687-30.503907h113.773438v-163.601562zm97.273438 128.214844c-13.808594 0-23.707031-4.6875-29.695312-15.105469l12.632812-17.195313c1.042969 1.042969 4.6875 9.640626 16.542969 9.640626 5.859375 0 11.589843-2.085938 11.589843-7.554688 0-6.773438-8.59375-8.855469-23.964843-8.855469h-4.296875v-20.453125h4.167968c11.460938 0 21.75-2.214844 21.75-8.726562 0-4.820313-5.472656-4.949219-6.902343-4.949219-9.769531 0-14.71875 5.46875-17.0625 8.464844l-15.632813-18.363281c6.90625-7.683594 20.84375-11.722657 32.5625-11.722657 19.277344 0 33.605469 10.941407 33.605469 25.269531 0 10.027344-7.03125 16.933594-16.800781 18.886719 11.332031 1.820313 18.363281 12.242188 18.363281 23.835938 0 19.40625-19.535156 26.828125-36.859375 26.828125zm0 0"/></svg>