<svg viewBox="0 -75 512 512" xmlns="http://www.w3.org/2000/svg"><path d="m96.191406 21.214844-21.210937-21.214844c-48.351563 48.351562-74.980469 112.640625-74.980469 181.019531 0 68.382813 26.628906 132.667969 74.980469 181.019531l21.210937-21.210937c-42.683594-42.6875-66.191406-99.441406-66.191406-159.808594 0-60.367187 23.507812-117.121093 66.191406-159.804687zm0 0"/><path d="m117.46875 42.488281c-37.0625 37.054688-57.46875 86.253907-57.46875 138.53125 0 52.277344 20.40625 101.476563 57.46875 138.535157l21.210938-21.214844c-31.390626-31.390625-48.679688-73.054688-48.679688-117.320313 0-44.261719 17.289062-85.929687 48.679688-117.320312zm0 0"/><path d="m437.019531 0-21.210937 21.214844c42.683594 42.683594 66.191406 99.4375 66.191406 159.804687 0 60.367188-23.507812 117.121094-66.191406 159.808594l21.210937 21.210937c48.351563-48.351562 74.980469-112.636718 74.980469-181.019531 0-68.378906-26.628906-132.667969-74.980469-181.019531zm0 0"/><path d="m394.53125 42.488281-21.210938 21.210938c31.390626 31.390625 48.679688 73.058593 48.679688 117.320312 0 44.265625-17.289062 85.929688-48.679688 117.320313l21.210938 21.214844c37.0625-37.058594 57.46875-86.257813 57.46875-138.535157 0-52.277343-20.40625-101.476562-57.46875-138.53125zm0 0"/><path d="m163.730469 231.980469h184.539062v23.453125h-184.539062zm0 0"/><path d="m233.894531 290.269531c0 12.210938 9.894531 22.105469 22.105469 22.105469s22.105469-9.894531 22.105469-22.105469v-4.835937h-44.210938zm0 0"/><path d="m321.949219 171.140625v-30.417969c0-31.261718-21.757813-57.421875-50.949219-64.214844v-26.84375h-30v26.84375c-29.191406 6.792969-50.949219 32.953126-50.949219 64.214844v30.417969c0 10.925781-2.761719 21.5-7.835937 30.839844h147.570312c-5.074218-9.339844-7.835937-19.914063-7.835937-30.839844zm0 0"/></svg>