<svg viewBox="0 0 512.00126 512" xmlns="http://www.w3.org/2000/svg"><path d="m0 186.152344h100.375v325.847656h-100.375zm0 0"/><path d="m503.113281 283.398438c.492188-25.730469-21.0625-46.792969-46.796875-46.792969h9.785156c25.050782 0 45.414063-20.070313 45.890626-45.003907.492187-25.734374-21.058594-46.792968-46.796876-46.792968h-123.601562s0-65.1875 0-98.910156c0-25.046876-20.070312-45.414063-45.003906-45.8906255-25.734375-.4921875-46.792969 21.0624995-46.792969 46.7968755v11.308593c0 73.835938-46.0625 139.835938-115.367187 165.304688l-4.054688 1.488281v245.941406l62.390625 41.152344h246.699219c25.050781 0 45.414062-20.066406 45.890625-45.003906.492187-25.730469-21.0625-46.792969-46.796875-46.792969h9.785156c25.050781 0 45.414062-20.070313 45.890625-45.003906.492187-25.734375-21.058594-46.796875-46.796875-46.796875h9.785156c25.050782 0 45.414063-20.066406 45.890625-45.003906zm0 0"/></svg>