<svg viewBox="-20 0 511 511.99967" xmlns="http://www.w3.org/2000/svg"><path d="m269.339844 0v163.03125h54.128906v30.359375l34.148438-30.359375h113.410156v-163.03125zm133.699218 126.628906h-60.128906v-22.078125h18.4375v-47.015625c-2.855468 4.027344-14.414062 11.171875-21.425781 11.171875v-22.597656c9.351563 0 21.167969-11.820313 21.425781-12.339844h25.195313v70.78125h16.492187v22.078125zm0 0"/><path d="m28.746094 253.105469 230.648437 230.648437c35.769531 35.765625 92.617188 37.558594 130.527344 5.421875l-366.597656-366.601562c-32.136719 37.910156-30.347657 94.761719 5.421875 130.53125zm0 0"/><path d="m78.957031 66.433594 86.996094 86.996094-34.671875 34.675781-86.996094-86.996094zm0 0"/><path d="m411.390625 468.21875-87-86.996094 34.675781-34.671875 86.996094 86.996094zm0 0"/></svg>