<svg viewBox="-10 0 511 512" xmlns="http://www.w3.org/2000/svg"><path d="m260.980469 78.351562c-13.167969-27.382812-30.679688-52.792968-52.199219-75.359374-21.515625 22.566406-39.027344 47.976562-52.199219 75.359374zm0 0"/><path d="m305.289062 302.285156h30.617188l34.867188-60.394531 28.460937 49.296875c10.023437-22.257812 16.066406-46.175781 17.832031-70.667969h-97.457031c-1.277344 28.082031-6.125 55.507813-14.320313 81.765625zm0 0"/><path d="m171.101562 0c-51.820312 9.480469-97.007812 38.152344-127.921874 78.351562h80.238281c11.972656-28.050781 27.957031-54.410156 47.683593-78.351562zm0 0"/><path d="m112.289062 108.550781h-88.46875c-13.015624 24.761719-21.214843 52.433594-23.320312 81.765625h97.441406c1.28125-28.078125 6.148438-55.503906 14.347656-81.765625zm0 0"/><path d="m374.386719 78.351562c-30.914063-40.195312-76.105469-68.871093-127.921875-78.351562 19.726562 23.941406 35.710937 50.300781 47.683594 78.351562zm0 0"/><path d="m144.089844 302.285156h129.382812c9.089844-26.089844 14.5-53.558594 15.917969-81.765625h-161.214844c1.417969 28.207031 6.824219 55.675781 15.914063 81.765625zm0 0"/><path d="m144.097656 108.550781c-9.09375 26.09375-14.492187 53.5625-15.914062 81.765625h161.199218c-1.421874-28.203125-6.820312-55.671875-15.917968-81.765625zm0 0"/><path d="m97.953125 220.519531h-97.453125c2.105469 29.335938 10.300781 57.003907 23.320312 81.765625h88.453126c-8.191407-26.257812-13.039063-53.683594-14.320313-81.765625zm0 0"/><path d="m370.773438 302.292969-121.074219 209.707031h242.148437zm15.097656 185.394531h-30.199219v-33.957031h30.199219zm-30.199219-57.949219v-63.3125h30.199219v63.3125zm0 0"/><path d="m318.46875 332.484375h-24.300781c-11.972657 28.0625-27.949219 54.429687-47.671875 78.371094 10.71875-1.953125 21.257812-4.753907 31.5625-8.378907zm0 0"/><path d="m319.621094 190.316406h97.445312c-2.105468-29.332031-10.304687-57.003906-23.324218-81.765625h-88.46875c8.199218 26.261719 13.066406 53.6875 14.347656 81.765625zm0 0"/><path d="m156.554688 332.484375c13.175781 27.410156 30.699218 52.832031 52.226562 75.40625 21.53125-22.574219 39.054688-47.996094 52.230469-75.40625zm0 0"/><path d="m43.175781 332.484375c30.90625 40.183594 76.074219 68.847656 127.867188 78.339844-19.710938-23.933594-35.679688-50.289063-47.648438-78.339844zm0 0"/></svg>