<svg viewBox="0 -75 512 512" xmlns="http://www.w3.org/2000/svg"><path d="m96.195312 21.214844-21.214843-21.214844c-48.351563 48.351562-74.980469 112.640625-74.980469 181.019531 0 68.382813 26.628906 132.667969 74.980469 181.019531l21.214843-21.210937c-42.6875-42.6875-66.195312-99.441406-66.195312-159.808594 0-60.367187 23.507812-117.121093 66.195312-159.804687zm0 0"/><path d="m117.46875 42.488281c-37.058594 37.054688-57.46875 86.253907-57.46875 138.53125 0 52.277344 20.410156 101.476563 57.46875 138.535157l21.210938-21.214844c-31.390626-31.390625-48.679688-73.054688-48.679688-117.320313 0-44.261719 17.289062-85.929687 48.679688-117.320312zm0 0"/><path d="m437.019531 0-21.214843 21.214844c42.6875 42.683594 66.195312 99.4375 66.195312 159.804687 0 60.367188-23.507812 117.121094-66.195312 159.808594l21.214843 21.210937c48.351563-48.351562 74.980469-112.636718 74.980469-181.019531 0-68.378906-26.628906-132.667969-74.980469-181.019531zm0 0"/><path d="m394.53125 42.488281-21.210938 21.210938c31.390626 31.390625 48.679688 73.058593 48.679688 117.320312 0 44.265625-17.289062 85.929688-48.679688 117.320313l21.210938 21.214844c37.058594-37.058594 57.46875-86.257813 57.46875-138.535157 0-52.277343-20.410156-101.476562-57.46875-138.53125zm0 0"/><path d="m219.164062 10.605469h73.671876v199.890625h-73.671876zm0 0"/><path d="m219.164062 277.757812h73.671876v73.675782h-73.671876zm0 0"/></svg>