<?xml version="1.0" standalone="no"?>
<!DOCTYPE svg PUBLIC "-//W3C//DTD SVG 20010904//EN"
 "http://www.w3.org/TR/2001/REC-SVG-20010904/DTD/svg10.dtd">
<svg version="1.0" xmlns="http://www.w3.org/2000/svg"
 width="1200.000000pt" height="1200.000000pt" viewBox="0 0 1200.000000 1200.000000"
 preserveAspectRatio="xMidYMid meet">
<metadata>
Created by potrace 1.11, written by Peter Selinger 2001-2013
</metadata>
<g transform="translate(0.000000,1200.000000) scale(0.100000,-0.100000)"
fill="#000000" stroke="none">
<path d="M0 9134 l0 -2867 25 -69 c47 -130 48 -298 4 -413 l-24 -60 -2 -2862
-3 -2863 1089 0 1090 0 -26 58 c-133 301 -5 664 287 810 213 107 427 93 624
-39 121 -82 199 -179 253 -314 25 -65 27 -80 27 -210 0 -144 -2 -154 -59 -287
-7 -17 127 -18 2729 -18 1505 0 2736 2 2736 4 0 2 -13 32 -29 67 -40 90 -55
161 -54 259 2 364 307 649 670 626 167 -10 304 -75 417 -197 179 -194 224
-458 118 -692 l-31 -67 1080 0 1079 0 0 2866 0 2867 -25 69 c-48 133 -48 311
-1 431 l26 64 0 2851 0 2852 -1091 0 c-869 0 -1090 -3 -1086 -12 37 -83 59
-146 67 -189 45 -239 -70 -508 -278 -645 -76 -51 -202 -93 -299 -100 -187 -14
-387 74 -522 230 -51 59 -114 188 -130 264 -27 128 -8 281 47 395 l29 57
-2744 0 c-1509 0 -2743 -2 -2743 -5 0 -3 8 -22 19 -43 89 -176 88 -372 -5
-561 -139 -283 -454 -414 -759 -317 -200 64 -361 238 -415 452 -35 135 -21
275 38 407 l31 67 -1080 0 -1079 0 0 -2866z m6210 2627 c253 -86 428 -269 490
-515 36 -144 23 -335 -32 -473 -94 -233 -336 -413 -592 -442 -485 -55 -875
328 -825 811 18 180 93 334 220 453 155 146 315 207 529 201 98 -3 129 -8 210
-35z m-1480 -1967 c185 -32 393 -120 535 -227 215 -160 388 -406 459 -649 41
-141 50 -206 49 -358 0 -109 -5 -170 -22 -247 -111 -528 -514 -916 -1041
-1004 -30 -5 -118 -9 -195 -9 -335 0 -622 115 -871 347 -183 172 -313 405
-364 653 -43 207 -25 462 46 662 88 247 271 485 477 622 296 196 605 266 927
210z m2958 0 c126 -25 240 -65 357 -124 137 -69 207 -120 316 -229 354 -356
457 -903 258 -1373 -145 -344 -457 -616 -817 -712 -315 -84 -622 -49 -924 105
-343 176 -577 501 -644 895 -24 143 -15 374 20 509 82 317 252 560 515 738
136 91 280 151 456 187 118 24 354 26 463 4z m2914 -564 c305 -102 507 -379
508 -696 0 -198 -76 -378 -222 -522 -151 -149 -308 -215 -513 -215 -125 0
-213 21 -330 78 -246 119 -405 376 -405 655 0 220 97 430 261 567 78 64 238
141 329 158 118 23 258 13 372 -25z m-8815 4 c200 -52 400 -216 488 -399 56
-117 77 -205 77 -325 -1 -122 -22 -213 -77 -325 -131 -269 -401 -429 -695
-412 -448 26 -774 442 -684 875 87 421 495 689 891 586z m7373 -1979 c223 -37
440 -141 615 -297 279 -248 427 -578 428 -953 0 -210 -38 -383 -125 -555 -173
-342 -456 -568 -833 -666 -104 -27 -121 -29 -315 -28 -192 0 -211 2 -305 28
-118 32 -300 117 -394 183 -219 154 -391 388 -470 635 -230 723 210 1484 944
1637 55 11 114 22 130 24 77 10 239 5 325 -8z m-5862 -40 c375 -72 694 -314
872 -662 171 -333 173 -784 6 -1116 -178 -353 -487 -593 -876 -678 -140 -31
-375 -33 -495 -5 -267 62 -478 179 -657 362 -170 175 -277 375 -335 626 -23
102 -23 371 0 491 47 236 155 442 325 619 205 214 445 337 738 377 93 13 320
6 422 -14z m3577 -142 c-3 -32 -22 -166 -40 -298 -18 -132 -48 -343 -65 -470
-64 -460 -77 -546 -86 -555 -9 -9 -125 -25 -262 -37 l-74 -6 7 129 c4 71 17
378 29 681 13 304 25 556 29 559 3 4 79 15 169 25 90 10 172 20 183 22 11 3
42 5 69 6 l48 1 -7 -57z m-967 -68 c160 -38 279 -144 324 -290 19 -60 27 -170
17 -240 -6 -48 -22 -97 -51 -155 -43 -88 -101 -153 -349 -385 -95 -89 -134
-154 -145 -242 -4 -29 -12 -57 -18 -61 -11 -9 -274 -42 -330 -42 l-29 0 7 89
c17 221 87 343 307 537 158 138 199 197 199 286 0 102 -55 158 -155 158 -93 0
-176 -31 -332 -122 -56 -33 -107 -57 -112 -54 -5 3 -44 68 -86 143 l-77 137
26 23 c36 31 152 98 232 133 196 88 418 121 572 85z m687 -1516 c95 -26 150
-138 127 -260 -23 -125 -118 -204 -257 -215 -64 -5 -75 -3 -124 23 -73 38
-101 89 -101 183 0 95 22 151 80 203 74 66 181 92 275 66z m-931 -138 c71 -44
102 -161 71 -267 -32 -113 -138 -184 -272 -184 -135 0 -202 72 -203 218 0 103
42 178 127 225 89 48 206 51 277 8z m-894 -686 c177 -37 364 -117 499 -212
142 -101 306 -295 391 -463 172 -340 171 -766 0 -1120 -55 -113 -110 -187
-216 -293 -361 -357 -832 -475 -1306 -326 -103 32 -280 125 -371 193 -242 182
-410 467 -463 785 -24 148 -15 378 19 516 83 327 272 588 548 758 142 88 325
153 494 176 95 13 313 6 405 -14z m2948 1 c261 -57 470 -174 661 -371 197
-203 309 -435 341 -708 69 -587 -285 -1152 -838 -1337 -256 -86 -564 -83 -814
6 -320 115 -591 364 -737 675 -139 296 -144 693 -13 996 85 197 273 428 438
535 163 106 359 187 522 213 109 18 339 13 440 -9z m-5921 -481 c136 -32 277
-116 378 -227 69 -77 149 -234 170 -333 35 -166 11 -338 -67 -495 -58 -116
-187 -247 -303 -307 -135 -70 -210 -88 -355 -87 -108 1 -137 5 -210 28 -259
84 -434 271 -501 537 -30 115 -23 281 15 388 68 193 183 332 356 429 151 85
334 109 517 67z m8759 5 c43 -11 115 -38 159 -60 155 -76 252 -175 330 -335
99 -204 100 -424 1 -630 -76 -158 -185 -272 -331 -345 -106 -52 -178 -70 -305
-77 -131 -6 -224 12 -335 66 -211 101 -350 270 -406 491 -30 119 -24 291 15
405 40 117 98 209 190 300 93 92 199 154 318 185 101 26 259 26 364 0z m-4506
-2520 c283 -37 515 -231 608 -508 24 -69 26 -92 26 -227 0 -138 -2 -157 -28
-230 -87 -254 -292 -436 -548 -489 -242 -50 -484 23 -659 198 -156 156 -229
328 -229 540 0 119 18 201 64 299 103 221 307 375 554 417 66 11 125 11 212 0z"/>
</g>
</svg>
