<svg viewBox="-29 0 512 512" xmlns="http://www.w3.org/2000/svg"><path d="m454.117188 348.476562-6.113282-4.496093c-34.050781-25.042969-54.378906-65.234375-54.378906-107.503907v-69.910156c0-2.855468-.089844-5.730468-.238281-8.605468 27.527343-13.601563 46.511719-41.964844 46.511719-74.691407 0-45.914062-37.355469-83.269531-83.269532-83.269531-19.953125 0-38.28125 7.0625-52.640625 18.804688-23.660156-12.332032-50.027343-18.804688-76.929687-18.804688-91.84375 0-166.566406 74.722656-166.566406 166.566406v69.910156c0 42.269532-20.328126 82.457032-54.378907 107.503907l-6.113281 4.496093v98.863282h161.28125c.613281 35.757812 29.875 64.660156 65.777344 64.660156s65.160156-28.902344 65.777344-64.660156h161.28125zm-97.488282-318.476562c29.375 0 53.269532 23.894531 53.269532 53.269531 0 29.371094-23.894532 53.265625-53.269532 53.265625-29.371094 0-53.265625-23.894531-53.265625-53.265625 0-29.375 23.894531-53.269531 53.265625-53.269531zm-266.136718 206.476562v-69.910156c0-75.304687 61.265624-136.566406 136.566406-136.566406 19.800781 0 39.230468 4.289062 57.023437 12.46875-6.8125 12.066406-10.71875 25.980469-10.71875 40.800781 0 45.914063 37.351563 83.265625 83.265625 83.265625 2.355469 0 4.683594-.121094 6.988282-.3125 0 .113282.003906.230469.003906.34375v69.910156c0 38.457032 13.738281 75.503907 37.898437 104.589844h-348.921875c24.15625-29.085937 37.894532-66.136718 37.894532-104.589844zm136.566406 245.523438c-19.363282 0-35.183594-15.445312-35.789063-34.660156h71.574219c-.601562 19.214844-16.425781 34.660156-35.785156 34.660156zm-197.058594-64.660156v-46.273438h394.117188v46.273438zm0 0"/></svg>