<svg viewBox="-41 0 512 512.001" xmlns="http://www.w3.org/2000/svg"><path d="m367.636719 259.960938v-63.609376c0-84.3125-68.59375-152.910156-152.90625-152.910156s-152.910157 68.597656-152.910157 152.910156v63.609376c0 38.027343-18.289062 74.179687-48.921874 96.714843l-6.117188 4.496094v91.996094h146.777344c1.265625 32.65625 28.210937 58.832031 61.171875 58.832031 32.957031 0 59.90625-26.175781 61.171875-58.832031h146.777344v-91.996094l-6.117188-4.496094c-30.636719-22.535156-48.925781-58.6875-48.925781-96.714843zm-275.800781 0v-63.609376c0-67.761718 55.128906-122.890624 122.894531-122.890624 67.761719 0 122.890625 55.128906 122.890625 122.890624v63.609376c0 34.332031 11.9375 67.4375 32.992187 93.792968h-311.765625c21.050782-26.355468 32.988282-59.460937 32.988282-93.792968zm122.894531 222.023437c-16.40625 0-29.894531-12.71875-31.125-28.816406h62.25c-1.230469 16.097656-14.722657 28.816406-31.125 28.816406zm-177.929688-58.832031v-39.378906h355.859375v39.378906zm0 0"/><path d="m139.890625 27.4375-12.175781-27.4375c-77.582032 34.429688-127.714844 111.5-127.714844 196.351562h30.015625c0-72.992187 43.128906-139.296874 109.875-168.914062zm0 0"/><path d="m399.441406 196.351562h30.015625c0-84.851562-50.128906-161.921874-127.714843-196.351562l-12.175782 27.4375c66.746094 29.617188 109.875 95.921875 109.875 168.914062zm0 0"/></svg>