<svg viewBox="0 -29 512 512" xmlns="http://www.w3.org/2000/svg"><path d="m0 0v355.351562h201.003906l54.996094 97.804688 54.996094-97.804688h201.003906v-355.351562zm482 325.351562h-188.550781l-37.449219 66.597657-37.449219-66.597657h-188.550781v-295.351562h452zm0 0"/><path d="m256 268.84375 77.410156-77.710938c22.441406-22.53125 22.371094-59.117187-.15625-81.558593-10.886718-10.84375-25.335937-16.8125-40.695312-16.8125-.039063 0-.078125 0-.117188 0-13.449218.027343-26.1875 4.625-36.441406 13.058593-10.25-8.433593-22.988281-13.03125-36.441406-13.058593-.039063 0-.074219 0-.113282 0-15.363281 0-29.8125 5.96875-40.695312 16.8125-22.527344 22.441406-22.601562 59.027343-.160156 81.558593zm-56.082031-138.015625c5.226562-5.203125 12.15625-8.066406 19.527343-8.066406h.054688c7.390625.015625 14.335938 2.90625 19.550781 8.144531l16.949219 17.015625 16.949219-17.019531c5.214843-5.234375 12.160156-8.125 19.550781-8.140625h.054688c7.371093 0 14.304687 2.863281 19.527343 8.066406 10.808594 10.769531 10.84375 28.320313.074219 39.128906l-56.15625 56.378907-56.15625-56.375c-10.769531-10.8125-10.734375-28.363282.074219-39.132813zm0 0"/></svg>