<svg viewBox="-40 1 511 511.99899" xmlns="http://www.w3.org/2000/svg"><path d="m368.554688 63.148438c-40.722657-40.722657-94.863282-63.148438-152.453126-63.148438-57.589843 0-111.730468 22.425781-152.453124 63.148438-40.722657 40.722656-63.148438 94.863281-63.148438 152.453124 0 100.5 69.851562 187.75 167.078125 210.101563l48.523437 86.296875 48.523438-86.296875c97.230469-22.351563 167.078125-109.601563 167.078125-210.101563 0-57.589843-22.425781-111.730468-63.148437-152.453124zm-116.570313 334.566406-6.800781 1.332031-29.082032 51.714844-29.078124-51.714844-6.800782-1.332031c-86.746094-16.988282-149.707031-93.578125-149.707031-182.113282 0-102.332031 83.253906-185.585937 185.585937-185.585937 102.332032 0 185.589844 83.253906 185.589844 185.585937 0 88.535157-62.960937 165.125-149.707031 182.113282zm0 0"/><path d="m299.097656 190.4375v-31.359375c0-45.765625-37.230468-82.996094-82.996094-82.996094-45.761718 0-82.996093 37.230469-82.996093 82.996094v31.359375c0 16.339844-7.855469 31.875-21.019531 41.554688l-6.117188 4.5v70.988281h72.335938v9.378906c0 20.84375 16.957031 37.796875 37.796874 37.796875 20.84375 0 37.796876-16.953125 37.796876-37.796875v-9.378906h72.335937v-70.988281l-6.117187-4.5c-13.160157-9.679688-21.019532-25.214844-21.019532-41.554688zm-135.976562 0v-31.359375c0-29.214844 23.765625-52.984375 52.980468-52.984375 29.214844 0 52.980469 23.769531 52.980469 52.984375v31.359375c0 13.625 3.457031 26.890625 9.773438 38.636719h-125.507813c6.316406-11.746094 9.773438-25.011719 9.773438-38.636719zm60.765625 126.421875c0 4.292969-3.492188 7.78125-7.785157 7.78125-4.289062 0-7.78125-3.488281-7.78125-7.78125v-9.382813h15.566407zm-87.902344-39.394531v-18.375h160.234375v18.375zm0 0"/></svg>