<svg viewBox="1 -131 511.99998 511" xmlns="http://www.w3.org/2000/svg"><path d="m118.289062.5-118.289062 124.511719 118.289062 124.515625h393.710938v-249.027344zm363.636719 218.953125h-350.726562l-89.71875-94.441406 89.71875-94.4375h350.726562zm0 0"/><path d="m199.960938 188.621094 51.058593-51.261719c15.898438-15.957031 15.847657-41.875-.109375-57.773437-7.714844-7.683594-17.949218-11.910157-28.832031-11.910157-.027344 0-.054687 0-.078125 0-7.941406.015625-15.535156 2.28125-22.046875 6.492188-15.789063-10.160157-37.105469-8.363281-50.941406 5.417969-15.957031 15.898437-16.007813 41.816406-.109375 57.773437zm-29.722657-87.730469c2.097657-2.089844 4.851563-3.136719 7.605469-3.136719 2.769531 0 5.535156 1.054688 7.636719 3.167969l14.480469 14.535156 14.480468-14.535156c2.03125-2.042969 4.734375-3.167969 7.617188-3.175781h.019531c2.871094 0 5.574219 1.117187 7.605469 3.144531 4.214844 4.195313 4.226562 11.035156.03125 15.246094l-29.753906 29.871093-29.753907-29.871093c-2.03125-2.042969-3.148437-4.75-3.144531-7.628907.007812-2.878906 1.132812-5.582031 3.175781-7.617187zm0 0"/><path d="m333.636719 105.324219v44.363281h-17.402344v20.832031h56.742187v-20.832031h-15.566406v-66.789062h-23.773437c-.246094.488281-11.398438 11.640624-20.21875 11.640624v21.324219c6.613281 0 17.523437-6.742187 20.21875-10.539062zm0 0"/><path d="m408.386719 151.28125c-5.511719 0-11.761719-3.0625-16.417969-8.089844l-12.746094 14.707032c5.511719 8.699218 16.296875 13.726562 29.042969 13.726562 19.976563 0 33.703125-12.257812 33.703125-29.90625 0-16.664062-12.011719-28.308594-28.921875-28.308594-3.921875 0-5.636719.613282-5.636719.613282l1.347656-9.4375h26.835938v-21.199219h-43.625l-10.296875 54.164062h19.976563c1.46875-2.570312 4.53125-4.289062 7.964843-4.289062 5.023438 0 8.457031 3.554687 8.457031 8.945312 0 5.519531-3.675781 9.074219-9.683593 9.074219zm0 0"/></svg>