<svg viewBox="0 -51 512 511" xmlns="http://www.w3.org/2000/svg"><path d="m512 83.394531c0-45.707031-37.1875-82.894531-82.894531-82.894531-40.585938 0-74.425781 29.324219-81.507813 67.894531h-347.597656v340.601563h444.105469v-244.09375c38.570312-7.082032 67.894531-40.925782 67.894531-81.507813zm-150.078125 48.46875-139.867187 146.058594-171.921876-179.527344h297.464844c2.261719 12.320313 7.25 23.691407 14.324219 33.46875zm-218.96875 106.832031-112.953125 117.949219v-235.898437zm20.769531 21.6875 58.332032 60.914063 58.332031-60.914063 113.585937 118.613282h-343.839844zm137.429688-21.6875 82.429687-86.078124c9.089844 6 19.421875 10.246093 30.523438 12.285156v191.742187zm127.953125-102.410156c-29.164063 0-52.894531-23.726562-52.894531-52.890625 0-29.167969 23.730468-52.894531 52.894531-52.894531 29.167969 0 52.894531 23.726562 52.894531 52.894531 0 29.164063-23.726562 52.890625-52.894531 52.890625zm0 0"/></svg>