<svg viewBox="0 0 512 512" xmlns="http://www.w3.org/2000/svg"><path d="m437.019531 74.980469c-48.351562-48.351563-112.640625-74.980469-181.019531-74.980469s-132.667969 26.628906-181.019531 74.980469c-48.351563 48.351562-74.980469 112.640625-74.980469 181.019531s26.628906 132.667969 74.980469 181.019531c48.351562 48.351563 112.640625 74.980469 181.019531 74.980469s132.667969-26.628906 181.019531-74.980469c48.351563-48.351562 74.980469-112.640625 74.980469-181.019531s-26.628906-132.667969-74.980469-181.019531zm-21.214843 340.824219c-42.683594 42.6875-99.4375 66.195312-159.804688 66.195312s-117.121094-23.507812-159.804688-66.195312c-42.6875-42.683594-66.195312-99.4375-66.195312-159.804688s23.507812-117.121094 66.195312-159.804688c42.683594-42.6875 99.4375-66.195312 159.804688-66.195312s117.121094 23.507812 159.804688 66.195312c42.6875 42.683594 66.195312 99.4375 66.195312 159.804688s-23.507812 117.121094-66.195312 159.804688zm0 0"/><path d="m365.894531 207.898438 21.1875-31.238282-51.742187-51.738281-31.238282 21.183594c-1.457031-.636719-2.925781-1.246094-4.40625-1.824219l-7.109374-37.070312h-73.167969l-7.109375 37.070312c-1.480469.578125-2.949219 1.1875-4.40625 1.824219l-31.238282-21.183594-51.742187 51.738281 21.1875 31.238282c-.636719 1.457031-1.246094 2.925781-1.828125 4.40625l-37.066406 7.109374v73.171876l37.066406 7.109374c.582031 1.480469 1.191406 2.949219 1.828125 4.40625l-21.1875 31.238282 51.742187 51.738281 31.238282-21.183594c1.457031.636719 2.925781 1.246094 4.40625 1.824219l7.109375 37.070312h73.167969l7.109374-37.070312c1.480469-.578125 2.949219-1.1875 4.40625-1.824219l31.238282 21.183594 51.742187-51.738281-21.1875-31.238282c.636719-1.457031 1.246094-2.925781 1.828125-4.40625l37.066406-7.109374v-73.171876l-37.066406-7.109374c-.582031-1.480469-1.191406-2.949219-1.828125-4.40625zm8.894531 59.894531-30.101562 5.769531-2.632812 8.660156c-1.6875 5.542969-3.929688 10.949219-6.664063 16.070313l-4.265625 7.988281 17.210938 25.378906-16.679688 16.675782-25.375-17.210938-7.988281 4.265625c-5.121094 2.738281-10.527344 4.976563-16.070313 6.664063l-8.660156 2.636718-5.769531 30.097656h-23.585938l-5.769531-30.097656-8.660156-2.636718c-5.542969-1.6875-10.949219-3.925782-16.070313-6.664063l-7.988281-4.265625-25.375 17.210938-16.679688-16.675782 17.210938-25.378906-4.265625-7.988281c-2.734375-5.121094-4.976563-10.527344-6.664063-16.070313l-2.632812-8.660156-30.101562-5.769531v-23.585938l30.101562-5.769531 2.632812-8.660156c1.6875-5.542969 3.929688-10.949219 6.664063-16.070313l4.265625-7.988281-17.210938-25.378906 16.679688-16.675782 25.375 17.210938 7.988281-4.265625c5.121094-2.738281 10.527344-4.976563 16.070313-6.664063l8.660156-2.636718 5.769531-30.097656h23.585938l5.769531 30.097656 8.660156 2.636718c5.542969 1.6875 10.949219 3.925782 16.070313 6.664063l7.988281 4.265625 25.375-17.210938 16.679688 16.675782-17.210938 25.378906 4.265625 7.988281c2.734375 5.121094 4.976563 10.527344 6.664063 16.070313l2.632812 8.660156 30.101562 5.769531zm0 0"/><path d="m256 203.308594c-29.054688 0-52.691406 23.636718-52.691406 52.691406s23.636718 52.691406 52.691406 52.691406 52.691406-23.636718 52.691406-52.691406-23.636718-52.691406-52.691406-52.691406zm0 75.382812c-12.511719 0-22.691406-10.179687-22.691406-22.691406s10.179687-22.691406 22.691406-22.691406 22.691406 10.179687 22.691406 22.691406-10.179687 22.691406-22.691406 22.691406zm0 0"/></svg>