<svg viewBox="0 -29 512 512" xmlns="http://www.w3.org/2000/svg"><path d="m0 0v355.351562h201.003906l54.996094 97.804688 54.996094-97.804688h201.003906v-355.351562zm482 325.351562h-188.550781l-37.449219 66.597657-37.449219-66.597657h-188.550781v-295.351562h452zm0 0"/><path d="m359.671875 205.789062c0-25.960937-20.566406-47.199218-46.261719-48.296874.960938-4.214844 1.484375-8.59375 1.484375-13.097657v-19.246093c0-32.472657-26.417969-58.894532-58.894531-58.894532s-58.894531 26.417969-58.894531 58.894532v19.246093c0 4.503907.523437 8.882813 1.484375 13.097657-25.691406 1.097656-46.261719 22.335937-46.261719 48.296874v72.945313h207.34375zm-132.566406-80.640624c0-15.929688 12.960937-28.894532 28.894531-28.894532s28.894531 12.960938 28.894531 28.894532v19.25c0 15.929687-12.960937 28.894531-28.894531 28.894531s-28.894531-12.960938-28.894531-28.894531zm102.566406 123.585937h-147.34375v-42.945313c0-10.117187 8.234375-18.351562 18.351563-18.351562h15.179687c10.527344 9.824219 24.640625 15.855469 40.140625 15.855469 15.503906 0 29.613281-6.03125 40.144531-15.855469h15.175781c10.121094 0 18.351563 8.234375 18.351563 18.351562zm0 0"/></svg>