<svg viewBox="-40 1 511 511.99896" xmlns="http://www.w3.org/2000/svg"><path d="m368.558594 63.148438c-40.722656-40.722657-94.867188-63.148438-152.457032-63.148438-57.589843 0-111.730468 22.425781-152.453124 63.148438-40.722657 40.722656-63.148438 94.863281-63.148438 152.453124 0 100.5 69.851562 187.75 167.078125 210.105469l48.523437 86.292969 48.523438-86.292969c97.230469-22.355469 167.082031-109.605469 167.082031-210.105469 0-57.589843-22.429687-111.730468-63.148437-152.453124zm-116.574219 334.566406-6.800781 1.332031-29.082032 51.714844-29.078124-51.714844-6.800782-1.332031c-86.746094-16.988282-149.707031-93.574219-149.707031-182.113282 0-102.332031 83.253906-185.585937 185.585937-185.585937 102.335938 0 185.589844 83.253906 185.589844 185.585937 0 88.539063-62.960937 165.125-149.707031 182.113282zm0 0"/><path d="m97.816406 302.019531h236.570313v-178.191406h-236.570313zm118.285156-38.824219 29.097657-29.0625 37.917969 37.871094h-134.03125l37.917968-37.871094zm50.332032-50.269531 37.941406-37.890625v75.78125zm-50.332032 7.847657-67.015624-66.929688h134.03125zm-50.332031-7.847657-37.9375 37.890625v-75.78125zm0 0"/></svg>