<svg viewBox="0 -29 512 512" xmlns="http://www.w3.org/2000/svg"><path d="m0 0v355.351562h201.003906l54.996094 97.804688 54.996094-97.804688h201.003906v-355.351562zm482 325.351562h-188.550781l-37.449219 66.597657-37.449219-66.597657h-188.550781v-295.351562h452zm0 0"/><path d="m117.609375 230.191406c28.957031 0 52.515625-23.558594 52.515625-52.515625s-23.558594-52.519531-52.515625-52.519531c-28.960937 0-52.519531 23.5625-52.519531 52.519531s23.558594 52.515625 52.519531 52.515625zm0-75.035156c12.414063 0 22.515625 10.105469 22.515625 22.519531 0 12.417969-10.101562 22.515625-22.515625 22.515625-12.417969 0-22.519531-10.097656-22.519531-22.515625 0-12.414062 10.101562-22.519531 22.519531-22.519531zm0 0"/><path d="m394.390625 230.191406c28.960937 0 52.519531-23.558594 52.519531-52.515625s-23.558594-52.519531-52.519531-52.519531c-28.957031 0-52.515625 23.5625-52.515625 52.519531s23.558594 52.515625 52.515625 52.515625zm0-75.035156c12.417969 0 22.519531 10.105469 22.519531 22.519531 0 12.417969-10.101562 22.515625-22.519531 22.515625-12.414063 0-22.515625-10.097656-22.515625-22.515625 0-12.414062 10.101562-22.519531 22.515625-22.519531zm0 0"/><path d="m256 230.191406c28.957031 0 52.519531-23.558594 52.519531-52.515625s-23.5625-52.519531-52.519531-52.519531-52.519531 23.5625-52.519531 52.519531 23.5625 52.515625 52.519531 52.515625zm0-75.035156c12.414062 0 22.519531 10.105469 22.519531 22.519531 0 12.417969-10.105469 22.515625-22.519531 22.515625s-22.519531-10.097656-22.519531-22.515625c0-12.414062 10.105469-22.519531 22.519531-22.519531zm0 0"/></svg>