<svg viewBox="0 0 512.00065 512" xmlns="http://www.w3.org/2000/svg"><path d="m512 83.28125c0-45.921875-37.359375-83.28125-83.277344-83.28125-40.21875 0-73.867187 28.65625-81.605468 66.625-34.796876 1.554688-68.011719 16.066406-92.800782 40.953125l-7.851562 7.882813-7.851563-7.882813c-26.335937-26.4375-61.390625-41.039063-98.707031-41.109375-.09375 0-.1875 0-.277344 0-37.210937 0-72.214844 14.457031-98.585937 40.726562-54.574219 54.363282-54.746094 142.996094-.382813 197.570313l205.804688 206.605469 205.804687-206.605469c41.304688-41.46875 52.0625-103.988281 28.257813-156.355469 19.160156-15.269531 31.472656-38.78125 31.472656-65.128906zm-83.277344-53.277344c29.375 0 53.273438 23.898438 53.273438 53.277344 0 29.375-23.898438 53.273438-53.273438 53.273438-29.378906 0-53.277344-23.898438-53.277344-53.273438 0-29.378906 23.902344-53.277344 53.277344-53.277344zm2.292969 253.585938-184.550781 185.265625-184.546875-185.265625c-42.6875-42.855469-42.554688-112.449219.300781-155.140625 20.757812-20.679688 48.296875-32 77.632812-31.980469 29.300782.058594 56.828126 11.523438 77.507813 32.28125l29.105469 29.226562 29.109375-29.226562c19.011719-19.085938 44.320312-30.402344 70.964843-32.050781 6.4375 39.558593 40.832032 69.859375 82.183594 69.859375 8.808594 0 17.300782-1.386719 25.277344-3.9375 17.640625 40.742187 8.980469 88.878906-22.984375 120.96875zm0 0"/></svg>