<svg viewBox="-31 0 512 512" xmlns="http://www.w3.org/2000/svg"><path d="m356.683594 265.355469h-23.839844c7.515625-15.609375 11.730469-33.09375 11.730469-51.542969v-45.671875c0-.988281-.035157-1.980469-.058594-2.972656 38.804687-7.0625 68.328125-41.089844 68.328125-81.898438 0-45.914062-37.355469-83.269531-83.269531-83.269531-34.875 0-64.796875 21.566406-77.171875 52.054688-8.804688-2.046876-17.835938-3.078126-26.992188-3.078126-65.707031 0-119.164062 53.457032-119.164062 119.164063v45.671875c0 18.449219 4.21875 35.933594 11.734375 51.542969h-23.839844c-51.910156 0-94.140625 42.230469-94.140625 94.140625v152.503906h450.824219v-152.503906c0-51.910156-42.230469-94.140625-94.140625-94.140625zm-27.109375-235.355469c29.375 0 53.269531 23.894531 53.269531 53.269531 0 29.371094-23.894531 53.265625-53.269531 53.265625-29.371094 0-53.265625-23.894531-53.265625-53.265625 0-29.375 23.894531-53.269531 53.265625-53.269531zm-193.328125 138.140625c0-49.164063 40-89.164063 89.164062-89.164063 7.117188 0 14.121094.847657 20.941406 2.492188-.011718.597656-.042968 1.195312-.042968 1.800781 0 40.769531 29.460937 74.765625 68.207031 81.878907.035156.996093.058594 1.996093.058594 2.992187v45.671875c0 49.167969-40 89.164062-89.164063 89.164062-49.164062 0-89.164062-39.996093-89.164062-89.164062zm284.578125 313.859375h-390.824219v-122.503906c0-35.367188 28.773438-64.140625 64.140625-64.140625h44.460937c21.75 23.140625 52.621094 37.621093 86.8125 37.621093 34.191407 0 65.058594-14.480468 86.808594-37.621093h44.460938c35.367187 0 64.140625 28.773437 64.140625 64.140625zm0 0"/></svg>