<svg viewBox="1 -131 511.99998 511" xmlns="http://www.w3.org/2000/svg"><path d="m279.585938 146.25c0-17.417969-12.335938-32.007812-28.730469-35.507812.101562-1.203126.167969-2.421876.167969-3.652344v-12.277344c0-23.730469-19.308594-43.039062-43.039063-43.039062s-43.039063 19.308593-43.039063 43.039062v12.277344c0 1.230468.066407 2.449218.167969 3.652344-16.394531 3.5-28.726562 18.089843-28.726562 35.507812v52.003906h143.199219zm-84.566407-51.4375c0-7.148438 5.816407-12.964844 12.964844-12.964844 7.152344 0 12.964844 5.816406 12.964844 12.964844v12.277344c0 7.148437-5.8125 12.964844-12.964844 12.964844-7.148437 0-12.964844-5.816407-12.964844-12.964844zm54.492188 73.367188h-83.054688v-21.929688c0-3.441406 2.800781-6.238281 6.238281-6.238281h7.613282c7.488281 6.304687 17.140625 10.113281 27.675781 10.113281 10.53125 0 20.1875-3.808594 27.675781-10.113281h7.609375c3.441407 0 6.238281 2.800781 6.238281 6.238281v21.929688zm0 0"/><path d="m118.289062.5-118.289062 124.511719 118.289062 124.515625h393.710938v-249.027344zm363.636719 218.953125h-350.726562l-89.71875-94.441406 89.71875-94.4375h350.726562zm0 0"/><path d="m344.417969 142.699219c0 17.773437 15.5625 29.046875 32.84375 29.046875 18.136719 0 32.84375-11.273438 32.84375-28.308594 0-9.191406-5.636719-15.6875-10.539063-19.363281 4.65625-2.695313 8.210938-9.3125 8.210938-14.949219 0-16.792969-17.035156-25.613281-30.515625-25.613281s-30.390625 9.066406-30.390625 25.855469c0 5.636718 3.429687 11.886718 8.085937 14.707031-4.777343 3.554687-10.539062 9.925781-10.539062 18.625zm32.84375-38.722657c4.042969 0 6.863281 2.695313 6.863281 5.882813 0 4.410156-3.554688 6.492187-6.863281 6.492187-3.308594 0-6.738281-2.082031-6.738281-6.492187 0-3.1875 2.695312-5.882813 6.738281-5.882813zm0 29.65625c5.269531 0 9.191406 3.066407 9.191406 8.457032 0 4.65625-3.800781 8.457031-9.191406 8.457031-5.148438 0-9.191407-3.675781-9.191407-8.457031 0-5.148438 3.796876-8.457032 9.191407-8.457032zm0 0"/></svg>