<svg viewBox="0 -78 512 512" xmlns="http://www.w3.org/2000/svg"><path d="m450.988281 166.976562h-4.582031c2.464844-7.457031 3.824219-15.414062 3.824219-23.6875v-26.550781c0-41.664062-33.898438-75.5625-75.5625-75.5625-41.664063 0-75.558594 33.898438-75.558594 75.5625v26.550781c0 8.273438 1.355469 16.230469 3.824219 23.6875h-4.585938c-1.066406 0-2.136718.03125-3.203125.085938-12.453125-12.75-29.816406-20.6875-49.003906-20.6875h-8.792969c3.515625-9.34375 5.457032-19.453125 5.457032-30.015625v-30.894531c0-47.125-38.339844-85.464844-85.464844-85.464844-47.128906 0-85.46875 38.339844-85.46875 85.464844v30.894531c0 10.5625 1.941406 20.671875 5.457031 30.015625h-8.792969c-37.789062 0-68.535156 30.746094-68.535156 68.535156v140.433594h512v-127.355469c0-33.644531-27.371094-61.011719-61.011719-61.011719zm-121.878906-50.238281c0-25.125 20.4375-45.5625 45.5625-45.5625 25.121094 0 45.558594 20.4375 45.558594 45.5625v26.550781c0 25.121094-20.4375 45.558594-45.558594 45.558594-25.125 0-45.5625-20.4375-45.5625-45.558594zm-227.234375-31.273437c0-30.582032 24.882812-55.464844 55.464844-55.464844 30.585937 0 55.464844 24.882812 55.464844 55.464844v30.894531c0 30.585937-24.878907 55.464844-55.464844 55.464844-30.582032 0-55.464844-24.878907-55.464844-55.464844zm182.804688 239.878906h-254.679688v-110.433594c0-21.25 17.289062-38.535156 38.535156-38.535156h28.027344c15.503906 15.699219 37.019531 25.449219 60.777344 25.449219 23.757812 0 45.273437-9.75 60.777344-25.449219h28.027343c21.25 0 38.535157 17.285156 38.535157 38.535156zm197.320312 0h-167.320312v-110.433594c0-6.207031-.84375-12.214844-2.398438-17.933594h9.28125c13.660156 13.511719 32.421875 21.871094 53.109375 21.871094 20.683594 0 39.445313-8.359375 53.105469-21.871094h23.210937c17.101563 0 31.011719 13.910157 31.011719 31.007813zm0 0"/></svg>