<svg viewBox="0 -31 512 512" xmlns="http://www.w3.org/2000/svg"><path d="m512 83.269531c0-45.914062-37.355469-83.269531-83.269531-83.269531-40.792969 0-74.800781 29.492188-81.886719 68.269531h-219.046875v91.902344h-127.796875v223.007813h54.121094v67.175781l75.546875-67.175781h186.265625v-90.242188l73.675781 65.511719v-67.175781h54.121094v-126.117188c38.777343-7.085938 68.269531-41.097656 68.269531-81.886719zm-393.738281 269.910157-34.140625 30.351562v-30.351562h-54.121094v-163.007813h97.796875v101.101563h158.136719v61.90625zm241.347656-91.90625v30.355468l-34.140625-30.355468h-167.671875v-163.003907h189.046875c6.195312 33.90625 32.980469 60.691407 66.886719 66.886719v96.117188zm69.121094-124.738282c-29.371094 0-53.269531-23.894531-53.269531-53.265625 0-29.375 23.898437-53.269531 53.269531-53.269531 29.375 0 53.269531 23.894531 53.269531 53.269531 0 29.371094-23.894531 53.265625-53.269531 53.265625zm0 0"/></svg>