<svg viewBox="-5 0 512 512" xmlns="http://www.w3.org/2000/svg"><path d="m382.550781 247.539062c-7.523437-37.277343-40.527343-65.433593-79.992187-65.433593h-16.367188c5.496094-12.566407 8.554688-26.433594 8.554688-41.003907v-38.4375c0-56.609374-46.054688-102.664062-102.664063-102.664062s-102.664062 46.054688-102.664062 102.664062v38.4375c0 14.570313 3.054687 28.4375 8.550781 41.003907h-16.363281c-45 0-81.605469 36.605469-81.605469 81.601562v130.726563h237.453125c7.472656 66.058594 63.6875 117.566406 131.710937 117.566406 73.097657 0 132.566407-59.46875 132.566407-132.566406.003906-68.582032-52.34375-125.164063-119.179688-131.894532zm-263.132812-144.875c0-40.066406 32.597656-72.664062 72.664062-72.664062 40.066407 0 72.664063 32.597656 72.664063 72.664062v38.4375c0 40.066407-32.597656 72.664063-72.664063 72.664063-40.066406 0-72.664062-32.597656-72.664062-72.664063zm-89.417969 161.042969c0-28.453125 23.148438-51.601562 51.601562-51.601562h36.394532c18.699218 19.5 45 31.660156 74.085937 31.660156 29.085938 0 55.386719-12.160156 74.082031-31.660156h36.394532c22.984375 0 42.5 15.105469 49.160156 35.910156-59.984375 7.921875-107.445312 56.097656-114.269531 116.417969h-207.449219zm339.164062 218.292969c-56.554687 0-102.566406-46.011719-102.566406-102.566406 0-56.554688 46.011719-102.566406 102.566406-102.566406 56.558594 0 102.566407 46.011718 102.566407 102.566406 0 56.554687-46.007813 102.566406-102.566407 102.566406zm0 0"/><path d="m384.164062 327.46875h-30v36.964844h-36.960937v30h36.960937v36.960937h30v-36.960937h36.964844v-30h-36.964844zm0 0"/></svg>