<svg viewBox="-2 0 512 512" xmlns="http://www.w3.org/2000/svg"><path d="m508.773438 512-100.757813-174.515625c21.875-35 33.398437-75.203125 33.398437-116.777344 0-58.953125-22.960937-114.378906-64.644531-156.0625-41.6875-41.6875-97.109375-64.644531-156.0625-64.644531s-114.378906 22.957031-156.0625 64.644531c-41.6875 41.683594-64.644531 97.109375-64.644531 156.0625s22.957031 114.375 64.644531 156.0625c41.683594 41.6875 97.109375 64.644531 156.0625 64.644531 5.71875 0 11.429688-.234374 17.117188-.671874l-41.140625 71.257812zm-260.128907-30 104.082031-180.277344 104.085938 180.277344zm-27.9375-70.585938c-105.15625 0-190.707031-85.550781-190.707031-190.707031s85.550781-190.707031 190.707031-190.707031c105.152344 0 190.707031 85.550781 190.707031 190.707031 0 30.414063-7.140624 59.96875-20.785156 86.660157l-37.902344-65.644532-96 166.285156c-11.816406 2.253907-23.902343 3.40625-36.019531 3.40625zm0 0"/><path d="m337.726562 355.058594h30v55.929687h-30zm0 0"/><path d="m337.726562 432.183594h30v30h-30zm0 0"/><path d="m168.964844 255.632812 21.214844 21.214844c8.152343-8.15625 18.996093-12.648437 30.527343-12.648437s22.375 4.492187 30.53125 12.648437l21.210938-21.214844c-13.820313-13.820312-32.195313-21.433593-51.742188-21.433593s-37.925781 7.613281-51.742187 21.433593zm0 0"/><path d="m220.707031 117.027344c-50.84375 0-98.644531 19.800781-134.597656 55.753906l21.214844 21.210938c30.285156-30.285157 70.550781-46.964844 113.382812-46.964844 42.828125 0 83.09375 16.679687 113.382813 46.964844l21.210937-21.210938c-35.953125-35.953125-83.75-55.753906-134.59375-55.753906zm0 0"/><path d="m127.535156 214.207031 21.214844 21.214844c19.222656-19.222656 44.773438-29.808594 71.957031-29.808594 27.179688 0 52.734375 10.585938 71.953125 29.808594l21.214844-21.214844c-24.886719-24.886719-57.972656-38.59375-93.167969-38.59375-35.195312 0-68.28125 13.707031-93.171875 38.59375zm0 0"/><path d="m207.902344 294.382812h25.609375v30h-25.609375zm0 0"/></svg>