<svg viewBox="-50 0 512 512.00002" xmlns="http://www.w3.org/2000/svg"><path d="m113.515625 0v142.300781h215.09375l52.613281 46.785157v-46.785157h31.492188v-142.300781zm269.199219 112.300781h-31.492188v9.964844l-11.203125-9.964844h-196.5v-82.300781h239.195313zm0 0"/><path d="m197.929688 465.214844h130.679687l52.613281 46.785156v-46.785156h31.492188v-142.300782h-214.785156zm30-112.300782h154.785156v82.300782h-31.492188v9.960937l-11.203125-9.960937h-112.089843zm0 0"/><path d="m299.195312 161.457031h-299.195312v142.300781h31.492188v46.785157l52.613281-46.785157h215.089843zm-30 112.300781h-196.5l-11.203124 9.964844v-9.964844h-31.492188v-82.300781h239.195312zm0 0"/></svg>