<svg viewBox="-27 0 512 512" xmlns="http://www.w3.org/2000/svg"><path d="m457.261719 83.269531c0-45.914062-37.355469-83.269531-83.269531-83.269531-44.550782 0-81.039063 35.175781-83.164063 79.210938-22.148437-7.261719-45.246094-10.941407-68.960937-10.941407-59.265626 0-114.980469 23.078125-156.882813 64.980469-41.90625 41.90625-64.984375 97.621094-64.984375 156.882812 0 59.261719 23.078125 114.980469 64.984375 156.882813 41.902344 41.90625 97.621094 64.984375 156.882813 64.984375 59.261718 0 114.976562-23.078125 156.882812-64.984375 41.902344-41.902344 64.980469-97.617187 64.980469-156.882813 0-46.4375-14.449219-91.269531-41.109375-128.667968 31.855468-11.699219 54.640625-42.335938 54.640625-78.195313zm-83.269531-53.269531c29.375 0 53.269531 23.894531 53.269531 53.269531 0 29.371094-23.894531 53.269531-53.269531 53.269531-29.371094 0-53.265626-23.898437-53.265626-53.269531 0-29.375 23.894532-53.269531 53.265626-53.269531zm-5.566407 136.328125c1.496094 1.769531 2.964844 3.558594 4.390625 5.371094h-71.394531c-10.703125-24.910157-24.824219-48.367188-42.144531-69.789063 12.679687 2.503906 25.058594 6.300782 37.066406 11.371094 11.429688 29.472656 39.164062 50.863281 72.082031 53.046875zm-146.558593 309.308594c-19.066407-20.15625-34.683594-42.75-46.5625-67.070313h93.121093c-11.878906 24.320313-27.496093 46.917969-46.558593 67.070313zm-59.011719-97.070313c-8.101563-23.457031-12.960938-48.117187-14.335938-73.433594h146.695313c-1.375 25.316407-6.238282 49.976563-14.335938 73.433594zm-132.269531-73.433594h87.886718c1.230469 25.195313 5.558594 49.820313 12.800782 73.433594h-79.636719c-11.625-22.285156-19.007813-47.121094-21.050781-73.433594zm191.28125-200.472656c19.058593 20.148438 34.664062 42.738282 46.539062 67.039063h-93.082031c11.878906-24.300781 27.480469-46.890625 46.542969-67.039063zm59 97.039063c8.105468 23.460937 12.960937 48.121093 14.339843 73.433593h-146.683593c1.378906-25.3125 6.234374-49.972656 14.339843-73.433593zm-162.394532 73.433593h-87.886718c2.042968-26.3125 9.425781-51.144531 21.050781-73.433593h79.660156c-7.25 23.617187-11.589844 48.242187-12.824219 73.433593zm206.789063 30h87.886719c-2.042969 26.3125-9.425782 51.148438-21.050782 73.433594h-79.640625c7.242188-23.613281 11.570313-48.238281 12.804688-73.433594zm-.003907-30c-1.230468-25.191406-5.570312-49.816406-12.820312-73.433593h79.71875c11.804688 22.710937 18.96875 47.648437 20.980469 73.433593zm-140.835937-173.183593c-17.300781 21.410156-31.414063 44.855469-42.109375 69.75h-71.296875c27.792969-35.320313 67.703125-60.671875 113.40625-69.75zm-113.40625 306.617187h71.28125c10.691406 24.898438 24.800781 48.339844 42.09375 69.746094-45.6875-9.082031-85.589844-34.429688-113.375-69.746094zm188.324219 69.75c17.292968-21.410156 31.40625-44.851562 42.097656-69.75h71.28125c-27.785156 35.316406-67.6875 60.664063-113.378906 69.75zm0 0"/></svg>