<svg viewBox="-40 1 511 511.99999" xmlns="http://www.w3.org/2000/svg"><path d="m368.558594 63.148438c-40.722656-40.722657-94.867188-63.148438-152.457032-63.148438-57.589843 0-111.730468 22.425781-152.453124 63.148438-40.722657 40.722656-63.148438 94.863281-63.148438 152.453124 0 100.5 69.851562 187.75 167.078125 210.105469l48.523437 86.292969 48.523438-86.292969c97.230469-22.355469 167.082031-109.605469 167.082031-210.105469 0-57.589843-22.429687-111.730468-63.148437-152.453124zm-116.574219 334.5625-6.800781 1.332031-29.082032 51.71875-29.078124-51.71875-6.800782-1.332031c-86.746094-16.984376-149.707031-93.574219-149.707031-182.109376 0-102.332031 83.253906-185.585937 185.585937-185.585937 102.335938 0 185.589844 83.253906 185.589844 185.585937 0 88.535157-62.960937 165.125-149.707031 182.109376zm0 0"/><path d="m110.511719 171.367188c-24.058594 0-43.628907 19.574218-43.628907 43.632812s19.570313 43.632812 43.628907 43.632812c24.058593 0 43.632812-19.574218 43.632812-43.632812s-19.574219-43.632812-43.632812-43.632812zm0 57.25c-7.507813 0-13.617188-6.109376-13.617188-13.617188s6.109375-13.617188 13.617188-13.617188c7.511719 0 13.617187 6.109376 13.617187 13.617188s-6.105468 13.617188-13.617187 13.617188zm0 0"/><path d="m321.691406 171.367188c-24.058594 0-43.628906 19.574218-43.628906 43.632812s19.570312 43.632812 43.628906 43.632812 43.632813-19.574218 43.632813-43.632812-19.574219-43.632812-43.632813-43.632812zm0 57.25c-7.507812 0-13.617187-6.109376-13.617187-13.617188s6.109375-13.617188 13.617187-13.617188c7.507813 0 13.617188 6.109376 13.617188 13.617188s-6.109375 13.617188-13.617188 13.617188zm0 0"/><path d="m216.101562 171.367188c-24.058593 0-43.632812 19.574218-43.632812 43.632812s19.574219 43.632812 43.632812 43.632812c24.058594 0 43.632813-19.574218 43.632813-43.632812s-19.574219-43.632812-43.632813-43.632812zm0 57.25c-7.507812 0-13.617187-6.109376-13.617187-13.617188s6.109375-13.617188 13.617187-13.617188c7.507813 0 13.617188 6.109376 13.617188 13.617188s-6.105469 13.617188-13.617188 13.617188zm0 0"/></svg>