<svg viewBox="-68 0 512 512" xmlns="http://www.w3.org/2000/svg"><path d="m376.347656 123.507812c0-68.105468-55.40625-123.507812-123.507812-123.507812-52.632813 0-97.675782 33.097656-115.425782 79.570312h-137.414062v432.429688h267.839844v-265.898438c61.050781-7.425781 108.507812-59.570312 108.507812-122.59375zm-150.761718 120.476563c4.042968.914063 8.132812 1.609375 12.253906 2.109375v169.46875h-207.839844v-239.554688h111.050781c6.335938 13.480469 15.105469 25.828126 26.019531 36.367188v83.640625zm-95.464844-134.414063c-.515625 4.578126-.789063 9.222657-.789063 13.9375 0 7.609376.707031 15.136719 2.070313 22.5h-101.402344v-36.4375zm-100.121094 372.429688v-36.4375h207.839844v36.4375zm222.839844-264.988281c-9.152344 0-18.210938-1.324219-26.914063-3.933594l-8.019531-2.40625-20.832031 18.523437v-30.3125l-5.214844-4.488281c-20.671875-17.804687-32.527344-43.640625-32.527344-70.890625 0-51.558594 41.945313-93.503906 93.507813-93.503906 51.558594 0 93.503906 41.945312 93.503906 93.503906 0 51.5625-41.945312 93.507813-93.503906 93.507813zm0 0"/><path d="m271.738281 73.710938c-.019531 0-.046875 0-.074219.003906-6.730468.011718-13.1875 1.808594-18.824218 5.160156-5.640625-3.351562-12.09375-5.148438-18.828125-5.160156-.023438-.003906-.050781-.003906-.074219-.003906-9.871094 0-19.15625 3.835937-26.152344 10.808593-14.476562 14.421875-14.523437 37.933594-.101562 52.410157l45.15625 45.332031 45.15625-45.332031c14.421875-14.476563 14.375-37.988282-.101563-52.414063-6.996093-6.96875-16.28125-10.804687-26.15625-10.804687zm5.003907 42.046874-23.902344 23.996094-23.902344-23.996094c-2.746094-2.761718-2.738281-7.238281.019531-9.988281 1.796875-1.789062 3.886719-2.058593 4.984375-2.058593h.011719c1.09375.003906 3.195313.277343 4.988281 2.078124l13.898438 13.953126 13.894531-13.953126c1.796875-1.800781 3.898437-2.074218 4.988281-2.078124h.015625c1.097657 0 3.1875.273437 4.980469 2.058593 2.761719 2.75 2.769531 7.226563.023438 9.988281zm0 0"/></svg>