<svg viewBox="-50 0 512 512" xmlns="http://www.w3.org/2000/svg"><path d="m412.890625 0h-306.375v79.570312h-106.515625v432.429688h267.839844v-295.445312h145.054687v-216.554688zm-306.375 109.570312v36.4375h-76.515625v-36.4375zm-76.515625 372.429688v-36.4375h207.839844v36.4375zm207.839844-66.4375h-207.839844v-239.554688h76.515625v40.546876h52.3125v65.546874l73.714844-65.546874h5.296875zm145.050781-229.007812h-161.757813l-32.304687 28.726562v-28.726562h-52.3125v-156.554688h246.378906v156.554688zm0 0"/><path d="m181.785156 93.277344h30v30h-30zm0 0"/><path d="m244.703125 93.277344h30v30h-30zm0 0"/><path d="m307.621094 93.277344h30v30h-30zm0 0"/></svg>