<svg viewBox="0 -82 512.00001 512" xmlns="http://www.w3.org/2000/svg"><path d="m274.4375 32.402344-211.667969 65.0625h-62.769531v134.042968h62.769531l26.308594 8.085938v63.859375l143.53125 44.121094v-63.859375l41.828125 12.855468v32.402344h104.347656v-328.972656h-104.347656zm-244.4375 95.0625h20.023438v74.042968h-20.023438zm172.609375 179.5-83.53125-25.675782v-32.472656l83.53125 25.675782zm-122.585937-101.539063v-81.878906l194.414062-59.761719v201.402344zm268.761718 93.546875h-44.347656v-268.972656h44.347656zm0 0"/><path d="m433.894531 149.488281h78.105469v30h-78.105469zm0 0"/><path d="m481.132812 10.957031 15 25.976563-67.640624 39.054687-15-25.980469zm0 0"/><path d="m481.144531 318.015625-67.640625-39.054687 15-25.980469 67.640625 39.054687zm0 0"/></svg>