<svg viewBox="0 0 512 512" xmlns="http://www.w3.org/2000/svg"><path d="m280.046875 220.53125c0-46.039062-37.457031-83.492188-83.496094-83.492188-46.035156 0-83.492187 37.453126-83.492187 83.492188v27.203125h-113.058594l51.566406 264.265625h289.972656l51.566407-264.265625h-113.058594zm-136.988281 0c0-29.496094 24-53.492188 53.496094-53.492188 29.496093 0 53.492187 23.996094 53.492187 53.492188v27.203125h-106.988281zm213.625 57.203125-39.855469 204.265625h-240.550781l-39.855469-204.265625h76.636719v31.785156h-8.683594v30h47.367188v-30h-8.683594v-31.785156h106.988281v31.785156h-8.6875v30h47.367187v-30h-8.683593v-31.785156zm0 0"/><path d="m307.121094 0v175.699219h40.859375v55.226562l62.105469-55.226562h101.914062v-175.699219zm174.878906 145.699219h-83.324219l-20.695312 18.40625v-18.40625h-40.859375v-115.699219h144.878906zm0 0"/><path d="m407.988281 67.695312c1.078125 0 5.195313.097657 5.195313 3.726563 0 4.898437-7.742188 6.566406-16.367188 6.566406h-3.136718v15.390625h3.234374c11.566407 0 18.035157 1.566406 18.035157 6.664063 0 4.117187-4.3125 5.683593-8.726563 5.683593-8.917968 0-11.664062-6.46875-12.445312-7.253906l-9.511719 12.941406c4.511719 7.839844 11.960937 11.367188 22.351563 11.367188 13.035156 0 27.738281-5.585938 27.738281-20.191406 0-8.722656-5.292969-16.5625-13.820313-17.9375 7.351563-1.46875 12.644532-6.664063 12.644532-14.214844 0-10.78125-10.78125-19.015625-25.289063-19.015625-8.820313 0-19.308594 3.039063-24.503906 8.820313l11.761719 13.824218c1.765624-2.253906 5.492187-6.371094 12.839843-6.371094zm0 0"/></svg>