<svg viewBox="0 -75 512 512" xmlns="http://www.w3.org/2000/svg"><path d="m331.210938 160.539062v-27.769531c0-36.335937-25.902344-66.730469-60.210938-73.703125v-21.957031h-30v21.957031c-34.308594 6.972656-60.210938 37.367188-60.210938 73.703125v27.769531c0 13.929688-6.695312 27.171876-17.917968 35.425782l-6.109375 4.492187v65.730469h64.054687v3.109375c0 19.398437 15.785156 35.183594 35.183594 35.183594 19.402344 0 35.183594-15.78125 35.183594-35.183594v-3.109375h64.058594v-65.730469l-6.113282-4.492187c-11.222656-8.253906-17.917968-21.496094-17.917968-35.425782zm-120.421876-27.769531c0-24.929687 20.28125-45.210937 45.210938-45.210937s45.210938 20.28125 45.210938 45.210937v27.769531c0 11.386719 2.675781 22.496094 7.578124 32.507813h-105.578124c4.902343-10.011719 7.578124-21.121094 7.578124-32.507813zm50.394532 136.527344c0 2.859375-2.324219 5.183594-5.183594 5.183594s-5.183594-2.324219-5.183594-5.183594v-3.109375h10.367188zm30-33.109375h-104.421875v-13.140625h138.476562v13.140625zm0 0"/><path d="m96.191406 21.214844-21.210937-21.214844c-48.351563 48.351562-74.980469 112.640625-74.980469 181.019531 0 68.382813 26.628906 132.667969 74.980469 181.019531l21.210937-21.210937c-42.683594-42.6875-66.191406-99.441406-66.191406-159.808594 0-60.367187 23.507812-117.121093 66.191406-159.804687zm0 0"/><path d="m117.46875 42.488281c-37.0625 37.054688-57.46875 86.253907-57.46875 138.53125 0 52.277344 20.40625 101.476563 57.46875 138.535157l21.210938-21.214844c-31.390626-31.390625-48.679688-73.054688-48.679688-117.320313 0-44.261719 17.289062-85.929687 48.679688-117.320312zm0 0"/><path d="m437.019531 0-21.210937 21.214844c42.683594 42.683594 66.191406 99.4375 66.191406 159.804687 0 60.367188-23.507812 117.121094-66.191406 159.808594l21.210937 21.210937c48.351563-48.351562 74.980469-112.636718 74.980469-181.019531 0-68.378906-26.628906-132.667969-74.980469-181.019531zm0 0"/><path d="m394.53125 42.488281-21.210938 21.210938c31.390626 31.390625 48.679688 73.058593 48.679688 117.320312 0 44.265625-17.289062 85.929688-48.679688 117.320313l21.210938 21.214844c37.0625-37.058594 57.46875-86.257813 57.46875-138.535157 0-52.277343-20.40625-101.476562-57.46875-138.53125zm0 0"/></svg>