<svg viewBox="-85 0 512 512" xmlns="http://www.w3.org/2000/svg"><path d="m342.792969 84.636719c0-46.667969-37.964844-84.636719-84.636719-84.636719-41.546875 0-76.171875 30.101562-83.277344 69.636719h-174.878906v442.363281h273.710938v-344.183594c39.261718-7.324218 69.082031-41.824218 69.082031-83.179687zm-100.769531 83.074219c.558593.109374 1.125.207031 1.6875.304687v245.910156h-213.710938v-246.214843zm-67.144532-68.074219c2.558594 14.238281 8.679688 27.25 17.417969 38.074219h-162.296875v-38.074219zm-144.878906 382.363281v-38.074219h213.710938v38.074219zm228.15625-342.726562c-30.125 0-54.636719-24.511719-54.636719-54.636719 0-30.128907 24.511719-54.636719 54.636719-54.636719 30.128906 0 54.640625 24.511719 54.640625 54.636719 0 30.128906-24.511719 54.636719-54.640625 54.636719zm0 0"/></svg>