<svg viewBox="0 0 511.99967 511" xmlns="http://www.w3.org/2000/svg"><path d="m503.632812 282.578125c.285157-15.027344-5.257812-29.332031-15.640624-40.433594 2.3125-1.683593 4.511718-3.546875 6.585937-5.582031 10.933594-10.742188 17.117187-25.089844 17.410156-40.402344.296875-15.511718-5.613281-30.242187-16.644531-41.484375-11.128906-11.347656-26.585938-17.855469-42.40625-17.855469h-101.359375v-78.109374c0-15.351563-5.925781-29.835938-16.679687-40.789063-10.742188-10.933594-25.085938-17.117187-40.402344-17.410156-15.503906-.296875-30.242188 5.613281-41.484375 16.644531-11.347657 11.128906-17.855469 26.589844-17.855469 42.40625v10.644531c0 31.023438-9.382812 60.863281-27.132812 86.300781-17.296876 24.78125-41.265626 43.527344-69.410157 54.371094v-35.132812h-138.613281v336.753906h138.613281v-35.195312l53.359375 35.195312h236.742188c15.351562 0 29.835937-5.921875 40.785156-16.679688 10.9375-10.738281 17.121094-25.089843 17.414062-40.402343.285157-15.03125-5.253906-29.332031-15.636718-40.433594 2.308594-1.683594 4.507812-3.546875 6.582031-5.582031 10.9375-10.742188 17.121094-25.089844 17.410156-40.402344.289063-15.03125-5.253906-29.332031-15.636719-40.4375 2.3125-1.679688 4.511719-3.542969 6.585938-5.582031 10.933594-10.738281 17.121094-25.089844 17.414062-40.402344zm-395.019531 199.921875h-78.613281v-276.757812h78.613281zm345.175781-259.257812h-28.601562v30h19.390625c7.816406 0 15.46875 3.226562 20.992187 8.859374 5.34375 5.445313 8.207032 12.515626 8.066407 19.902344-.292969 15.25-12.945313 27.65625-28.207031 27.65625h-28.601563v30h19.390625c7.816406 0 15.46875 3.230469 20.996094 8.863282 5.339844 5.445312 8.203125 12.511718 8.0625 19.902343-.292969 15.246094-12.945313 27.652344-28.207032 27.652344h-28.601562v30h19.390625c7.816406 0 15.46875 3.230469 20.992187 8.863281 5.34375 5.445313 8.207032 12.511719 8.066407 19.902344-.289063 15.25-12.941407 27.65625-28.203125 27.65625h-227.742188l-62.359375-41.132812v-198.480469l8.113281-2.980469c34.910157-12.828125 64.613282-35.730469 85.898438-66.230469 21.285156-30.496093 32.535156-66.277343 32.535156-103.46875v-10.644531c0-7.816406 3.230469-15.46875 8.863282-20.992188 5.441406-5.34375 12.535156-8.191406 19.902343-8.066406 15.246094.292969 27.652344 12.945313 27.652344 28.207032v108.109374h131.359375c7.8125 0 15.464844 3.230469 20.992188 8.863282 5.34375 5.445312 8.207031 12.511718 8.0625 19.902344-.289063 15.25-12.941407 27.65625-28.203126 27.65625zm0 0"/></svg>