<svg viewBox="-23 1 511 511.99901" xmlns="http://www.w3.org/2000/svg"><path d="m303.804688 364.679688-155.933594-155.933594 40.636718-40.636719-101.019531-101.023437-56.667969 56.667968c-19.554687 19.554688-30.320312 45.546875-30.320312 73.195313 0 27.648437 10.765625 53.644531 30.320312 73.195312l211.582032 211.585938c20.179687 20.179687 46.6875 30.269531 73.195312 30.269531 26.507813 0 53.015625-10.089844 73.195313-30.269531l56.667969-56.667969-101.019532-101.023438zm-157.726563-196.570313-19.421875 19.421875-58.589844-58.59375 19.421875-19.421875zm117.539063 292.40625-211.585938-211.585937c-13.882812-13.882813-21.53125-32.34375-21.53125-51.980469 0-17.171875 5.851562-33.441407 16.601562-46.542969l315.035157 315.035156c-28.84375 23.628906-71.605469 21.988282-98.519531-4.925781zm119.992187-16.03125-58.589844-58.589844 19.421875-19.421875 58.589844 58.589844zm0 0"/><path d="m261.917969 0v175.148438h40.703125v55.085937l61.945312-55.085937h101.566406v-175.148438zm174.210937 145.148438h-82.96875l-20.539062 18.261718v-18.261718h-40.699219v-115.144532h144.207031zm0 0"/><path d="m357.382812 69.546875v35.347656h-13.867187v16.601563h45.214844v-16.601563h-12.402344v-53.21875h-18.945313c-.191406.390625-9.078124 9.277344-16.109374 9.277344v16.992187c5.269531 0 13.960937-5.371093 16.109374-8.398437zm0 0"/></svg>