<svg viewBox="0 0 512 512" xmlns="http://www.w3.org/2000/svg"><path d="m511.972656 512-113.066406-195.835938c17.515625-31.492187 26.742188-67.050781 26.742188-103.339843 0-117.351563-95.472657-212.824219-212.824219-212.824219-117.351563 0-212.824219 95.472656-212.824219 212.824219 0 117.351562 95.472656 212.820312 212.824219 212.820312 13.179687 0 26.195312-1.191406 38.96875-3.554687l-51.910157 89.910156zm-260.128906-30 104.085938-180.277344 104.082031 180.277344zm104.082031-240.277344-31.761719 55.011719h-23.824218c6.726562-22.175781 10.78125-45.28125 11.984375-68.910156h82.683593c-1.613281 19.730469-6.386718 39.007812-14.144531 57.09375zm-143.101562 147.53125c-17.722657-18.832031-32.300781-39.882812-43.472657-62.519531h86.945313c-11.171875 22.636719-25.75 43.6875-43.472656 62.519531zm-55.964844-92.519531c-7.5625-22.027344-12.125-45.164063-13.480469-68.910156h138.890625c-1.355469 23.746093-5.917969 46.882812-13.480469 68.910156zm-126.242187-68.910156h82.703124c1.207032 23.628906 5.257813 46.734375 11.984376 68.910156h-74.875c-10.867188-20.945313-17.796876-44.242187-19.8125-68.910156zm182.207031-191.402344c17.714843 18.828125 32.289062 39.871094 43.457031 62.488281h-86.917969c11.171875-22.617187 25.742188-43.660156 43.460938-62.488281zm55.953125 92.488281c7.566406 22.035156 12.128906 45.167969 13.484375 68.914063h-138.878907c1.355469-23.746094 5.921876-46.878907 13.488282-68.914063zm126.25 68.914063h-82.714844c-1.203125-23.628907-5.25-46.730469-11.984375-68.914063h74.890625c10.867188 20.945313 17.796875 44.242188 19.808594 68.914063zm-281.695313 0h-82.714843c2.015624-24.671875 8.945312-47.96875 19.8125-68.914063h74.886718c-6.730468 22.183594-10.777344 45.285156-11.984375 68.914063zm242.378907-98.914063h-66.375c-9.996094-23.167968-23.089844-45.019531-39.070313-65.050781 42.351563 8.851563 79.363281 32.402344 105.445313 65.050781zm-180.328126-65.050781c-15.980468 20.03125-29.074218 41.882813-39.070312 65.050781h-66.378906c26.082031-32.648437 63.09375-56.199218 105.449218-65.050781zm-105.445312 292.875h66.363281c9.988281 23.171875 23.070313 45.023437 39.039063 65.042969-42.335938-8.855469-79.332032-32.402344-105.402344-65.042969zm180.34375 65.078125c15.980469-20.03125 29.070312-41.894531 39.066406-65.078125h17.496094l-33.949219 58.808594c-7.410156 2.578125-14.957031 4.671875-22.613281 6.269531zm0 0"/><path d="m340.925781 355.058594h30v55.929687h-30zm0 0"/><path d="m340.925781 432.183594h30v30h-30zm0 0"/></svg>