<svg viewBox="0 -71 512 512" xmlns="http://www.w3.org/2000/svg"><path d="m96.195312 25.605469-21.214843-21.210938c-48.351563 48.351563-74.980469 112.636719-74.980469 181.019531 0 68.378907 26.628906 132.667969 74.980469 181.019532l21.214843-21.214844c-42.6875-42.683594-66.195312-99.4375-66.195312-159.804688 0-60.367187 23.507812-117.121093 66.195312-159.808593zm0 0"/><path d="m117.46875 46.878906c-37.058594 37.058594-57.46875 86.257813-57.46875 138.535156 0 52.277344 20.410156 101.476563 57.46875 138.53125l21.210938-21.210937c-31.390626-31.390625-48.679688-73.058594-48.679688-117.320313 0-44.265624 17.289062-85.929687 48.679688-117.320312zm0 0"/><path d="m437.019531 4.394531-21.214843 21.210938c42.6875 42.6875 66.195312 99.441406 66.195312 159.808593 0 60.367188-23.507812 117.121094-66.195312 159.804688l21.214843 21.214844c48.351563-48.351563 74.980469-112.640625 74.980469-181.019532 0-68.382812-26.628906-132.667968-74.980469-181.019531zm0 0"/><path d="m394.53125 46.878906-21.210938 21.214844c31.390626 31.390625 48.679688 73.054688 48.679688 117.320312 0 44.261719-17.289062 85.929688-48.679688 117.320313l21.210938 21.210937c37.058594-37.054687 57.46875-86.253906 57.46875-138.53125 0-52.277343-20.410156-101.476562-57.46875-138.535156zm0 0"/><path d="m204.164062 229.890625h103.671876v-229.890625h-103.671876zm30-199.890625h43.671876v169.890625h-43.671876zm0 0"/><path d="m204.164062 370.824219h103.671876v-103.671875h-103.671876zm30-73.671875h43.671876v43.671875h-43.671876zm0 0"/></svg>